<?xml version="1.0" encoding="UTF-8"?>
<svg version="1.1" xmlns="http://www.w3.org/2000/svg" width="400" height="400">
<path d="M0 0 C132 0 264 0 400 0 C400 132 400 264 400 400 C268 400 136 400 0 400 C0 268 0 136 0 0 Z " fill="#FFFFFF" transform="translate(0,0)"/>
<path d="M0 0 C11.88 0 23.76 0 36 0 C36 2.97 36 5.94 36 9 C33.03 9 30.06 9 27 9 C27 17.91 27 26.82 27 36 C29.97 36 32.94 36 36 36 C36 41.94 36 47.88 36 54 C33.03 54 30.06 54 27 54 C27 59.61 27 65.22 27 71 C24.03 71 21.06 71 18 71 C18 73.97 18 76.94 18 80 C20.97 80 23.94 80 27 80 C27 88.91 27 97.82 27 107 C29.97 107 32.94 107 36 107 C36 112.94 36 118.88 36 125 C30.06 125 24.12 125 18 125 C18 122.03 18 119.06 18 116 C15.03 116 12.06 116 9 116 C9 124.91 9 133.82 9 143 C14.94 143 20.88 143 27 143 C27 145.64 27 148.28 27 151 C24.03 151 21.06 151 18 151 C18 153.97 18 156.94 18 160 C23.94 160 29.88 160 36 160 C36 154.39 36 148.78 36 143 C38.97 143 41.94 143 45 143 C45 148.61 45 154.22 45 160 C47.97 160 50.94 160 54 160 C54 162.97 54 165.94 54 169 C59.61 169 65.22 169 71 169 C71 171.97 71 174.94 71 178 C73.97 178 76.94 178 80 178 C80 180.97 80 183.94 80 187 C82.97 187 85.94 187 89 187 C89 189.97 89 192.94 89 196 C91.97 196 94.94 196 98 196 C98 193.03 98 190.06 98 187 C100.97 187 103.94 187 107 187 C107 184.03 107 181.06 107 178 C109.97 178 112.94 178 116 178 C116 186.91 116 195.82 116 205 C107.09 205 98.18 205 89 205 C89 207.97 89 210.94 89 214 C86.03 214 83.06 214 80 214 C80 211.03 80 208.06 80 205 C77.03 205 74.06 205 71 205 C71 207.97 71 210.94 71 214 C68.03 214 65.06 214 62 214 C62 216.97 62 219.94 62 223 C59.36 223 56.72 223 54 223 C54 225.64 54 228.28 54 231 C51.03 231 48.06 231 45 231 C45 228.36 45 225.72 45 223 C33.12 223 21.24 223 9 223 C9 225.64 9 228.28 9 231 C6.03 231 3.06 231 0 231 C0 225.39 0 219.78 0 214 C-2.97 214 -5.94 214 -9 214 C-9 216.97 -9 219.94 -9 223 C-11.97 223 -14.94 223 -18 223 C-18 225.64 -18 228.28 -18 231 C-15.03 231 -12.06 231 -9 231 C-9 233.97 -9 236.94 -9 240 C-6.03 240 -3.06 240 0 240 C0 242.97 0 245.94 0 249 C-8.58 249 -17.16 249 -26 249 C-26 251.97 -26 254.94 -26 258 C-23.36 258 -20.72 258 -18 258 C-18 260.97 -18 263.94 -18 267 C-15.03 267 -12.06 267 -9 267 C-9 269.97 -9 272.94 -9 276 C-6.03 276 -3.06 276 0 276 C0 278.97 0 281.94 0 285 C2.97 285 5.94 285 9 285 C9 290.94 9 296.88 9 303 C3.06 303 -2.88 303 -9 303 C-9 305.64 -9 308.28 -9 311 C-11.97 311 -14.94 311 -18 311 C-18 313.97 -18 316.94 -18 320 C-20.64 320 -23.28 320 -26 320 C-26 325.94 -26 331.88 -26 338 C-28.97 338 -31.94 338 -35 338 C-35 340.97 -35 343.94 -35 347 C-40.94 347 -46.88 347 -53 347 C-53 349.97 -53 352.94 -53 356 C-58.94 356 -64.88 356 -71 356 C-71 353.03 -71 350.06 -71 347 C-68.03 347 -65.06 347 -62 347 C-62 344.03 -62 341.06 -62 338 C-59.03 338 -56.06 338 -53 338 C-53 335.03 -53 332.06 -53 329 C-50.03 329 -47.06 329 -44 329 C-44 326.03 -44 323.06 -44 320 C-46.97 320 -49.94 320 -53 320 C-53 317.03 -53 314.06 -53 311 C-55.97 311 -58.94 311 -62 311 C-62 305.39 -62 299.78 -62 294 C-59.03 294 -56.06 294 -53 294 C-53 291.03 -53 288.06 -53 285 C-47.06 285 -41.12 285 -35 285 C-35 276.09 -35 267.18 -35 258 C-40.94 258 -46.88 258 -53 258 C-53 255.03 -53 252.06 -53 249 C-50.03 249 -47.06 249 -44 249 C-44 246.03 -44 243.06 -44 240 C-46.97 240 -49.94 240 -53 240 C-53 237.03 -53 234.06 -53 231 C-44.09 231 -35.18 231 -26 231 C-26 225.39 -26 219.78 -26 214 C-28.97 214 -31.94 214 -35 214 C-35 216.97 -35 219.94 -35 223 C-37.97 223 -40.94 223 -44 223 C-44 217.06 -44 211.12 -44 205 C-46.97 205 -49.94 205 -53 205 C-53 202.03 -53 199.06 -53 196 C-55.97 196 -58.94 196 -62 196 C-62 198.97 -62 201.94 -62 205 C-64.97 205 -67.94 205 -71 205 C-71 202.03 -71 199.06 -71 196 C-73.97 196 -76.94 196 -80 196 C-80 193.03 -80 190.06 -80 187 C-82.97 187 -85.94 187 -89 187 C-89 192.94 -89 198.88 -89 205 C-86.03 205 -83.06 205 -80 205 C-80 210.94 -80 216.88 -80 223 C-77.03 223 -74.06 223 -71 223 C-71 231.58 -71 240.16 -71 249 C-68.03 249 -65.06 249 -62 249 C-62 251.97 -62 254.94 -62 258 C-64.97 258 -67.94 258 -71 258 C-71 260.97 -71 263.94 -71 267 C-65.06 267 -59.12 267 -53 267 C-53 269.97 -53 272.94 -53 276 C-61.91 276 -70.82 276 -80 276 C-80 278.97 -80 281.94 -80 285 C-82.97 285 -85.94 285 -89 285 C-89 279.06 -89 273.12 -89 267 C-94.61 267 -100.22 267 -106 267 C-106 272.94 -106 278.88 -106 285 C-108.97 285 -111.94 285 -115 285 C-115 279.06 -115 273.12 -115 267 C-117.97 267 -120.94 267 -124 267 C-124 272.94 -124 278.88 -124 285 C-126.97 285 -129.94 285 -133 285 C-133 287.97 -133 290.94 -133 294 C-135.97 294 -138.94 294 -142 294 C-142 288.06 -142 282.12 -142 276 C-153.88 276 -165.76 276 -178 276 C-178 273.03 -178 270.06 -178 267 C-166.12 267 -154.24 267 -142 267 C-142 264.03 -142 261.06 -142 258 C-159.49 258 -176.98 258 -195 258 C-195 255.03 -195 252.06 -195 249 C-189.39 249 -183.78 249 -178 249 C-178 246.03 -178 243.06 -178 240 C-175.03 240 -172.06 240 -169 240 C-169 234.39 -169 228.78 -169 223 C-163.06 223 -157.12 223 -151 223 C-151 220.03 -151 217.06 -151 214 C-145.06 214 -139.12 214 -133 214 C-133 208.06 -133 202.12 -133 196 C-135.97 196 -138.94 196 -142 196 C-142 193.03 -142 190.06 -142 187 C-139.03 187 -136.06 187 -133 187 C-133 184.03 -133 181.06 -133 178 C-130.03 178 -127.06 178 -124 178 C-124 169.09 -124 160.18 -124 151 C-121.03 151 -118.06 151 -115 151 C-115 153.97 -115 156.94 -115 160 C-109.39 160 -103.78 160 -98 160 C-98 154.39 -98 148.78 -98 143 C-100.64 143 -103.28 143 -106 143 C-106 140.03 -106 137.06 -106 134 C-108.97 134 -111.94 134 -115 134 C-115 131.03 -115 128.06 -115 125 C-106.42 125 -97.84 125 -89 125 C-89 127.97 -89 130.94 -89 134 C-86.03 134 -83.06 134 -80 134 C-80 131.03 -80 128.06 -80 125 C-74.06 125 -68.12 125 -62 125 C-62 127.97 -62 130.94 -62 134 C-64.97 134 -67.94 134 -71 134 C-71 136.97 -71 139.94 -71 143 C-59.12 143 -47.24 143 -35 143 C-35 140.03 -35 137.06 -35 134 C-37.97 134 -40.94 134 -44 134 C-44 131.03 -44 128.06 -44 125 C-46.97 125 -49.94 125 -53 125 C-53 122.03 -53 119.06 -53 116 C-47.06 116 -41.12 116 -35 116 C-35 118.97 -35 121.94 -35 125 C-32.03 125 -29.06 125 -26 125 C-26 127.97 -26 130.94 -26 134 C-20.39 134 -14.78 134 -9 134 C-9 131.03 -9 128.06 -9 125 C-11.97 125 -14.94 125 -18 125 C-18 122.03 -18 119.06 -18 116 C-15.03 116 -12.06 116 -9 116 C-9 110.06 -9 104.12 -9 98 C-6.03 98 -3.06 98 0 98 C0 89.09 0 80.18 0 71 C-2.97 71 -5.94 71 -9 71 C-9 73.97 -9 76.94 -9 80 C-11.97 80 -14.94 80 -18 80 C-18 71.42 -18 62.84 -18 54 C-20.64 54 -23.28 54 -26 54 C-26 51.03 -26 48.06 -26 45 C-20.39 45 -14.78 45 -9 45 C-9 36.09 -9 27.18 -9 18 C-6.03 18 -3.06 18 0 18 C0 20.97 0 23.94 0 27 C2.97 27 5.94 27 9 27 C9 24.03 9 21.06 9 18 C11.97 18 14.94 18 18 18 C18 15.03 18 12.06 18 9 C12.06 9 6.12 9 0 9 C0 6.03 0 3.06 0 0 Z " fill="#000000" transform="translate(266,17)"/>
<path d="M0 0 C8.91 0 17.82 0 27 0 C27 2.97 27 5.94 27 9 C29.64 9 32.28 9 35 9 C35 6.03 35 3.06 35 0 C37.97 0 40.94 0 44 0 C44 2.97 44 5.94 44 9 C46.97 9 49.94 9 53 9 C53 11.97 53 14.94 53 18 C47.06 18 41.12 18 35 18 C35 23.94 35 29.88 35 36 C37.97 36 40.94 36 44 36 C44 38.97 44 41.94 44 45 C46.97 45 49.94 45 53 45 C53 42.03 53 39.06 53 36 C55.97 36 58.94 36 62 36 C62 41.94 62 47.88 62 54 C64.97 54 67.94 54 71 54 C71 48.06 71 42.12 71 36 C73.97 36 76.94 36 80 36 C80 33.03 80 30.06 80 27 C82.97 27 85.94 27 89 27 C89 35.91 89 44.82 89 54 C86.03 54 83.06 54 80 54 C80 56.97 80 59.94 80 63 C82.97 63 85.94 63 89 63 C89 65.97 89 68.94 89 72 C83.06 72 77.12 72 71 72 C71 74.64 71 77.28 71 80 C68.03 80 65.06 80 62 80 C62 85.94 62 91.88 62 98 C67.94 98 73.88 98 80 98 C80 100.97 80 103.94 80 107 C74.06 107 68.12 107 62 107 C62 109.97 62 112.94 62 116 C59.03 116 56.06 116 53 116 C53 118.97 53 121.94 53 125 C50.03 125 47.06 125 44 125 C44 119.06 44 113.12 44 107 C46.97 107 49.94 107 53 107 C53 104.03 53 101.06 53 98 C47.06 98 41.12 98 35 98 C35 100.97 35 103.94 35 107 C32.36 107 29.72 107 27 107 C27 109.97 27 112.94 27 116 C24.03 116 21.06 116 18 116 C18 118.97 18 121.94 18 125 C23.61 125 29.22 125 35 125 C35 133.91 35 142.82 35 152 C20.48 152 5.96 152 -9 152 C-9 154.64 -9 157.28 -9 160 C-6.03 160 -3.06 160 0 160 C0 162.97 0 165.94 0 169 C2.97 169 5.94 169 9 169 C9 174.94 9 180.88 9 187 C3.06 187 -2.88 187 -9 187 C-9 184.03 -9 181.06 -9 178 C-14.94 178 -20.88 178 -27 178 C-27 175.03 -27 172.06 -27 169 C-29.97 169 -32.94 169 -36 169 C-36 160.42 -36 151.84 -36 143 C-24.12 143 -12.24 143 0 143 C0 140.03 0 137.06 0 134 C-2.97 134 -5.94 134 -9 134 C-9 131.03 -9 128.06 -9 125 C-11.97 125 -14.94 125 -18 125 C-18 127.97 -18 130.94 -18 134 C-23.94 134 -29.88 134 -36 134 C-36 128.06 -36 122.12 -36 116 C-30.06 116 -24.12 116 -18 116 C-18 113.03 -18 110.06 -18 107 C-23.94 107 -29.88 107 -36 107 C-36 104.03 -36 101.06 -36 98 C-24.12 98 -12.24 98 0 98 C0 95.03 0 92.06 0 89 C2.97 89 5.94 89 9 89 C9 86.03 9 83.06 9 80 C11.97 80 14.94 80 18 80 C18 77.36 18 74.72 18 72 C20.97 72 23.94 72 27 72 C27 69.03 27 66.06 27 63 C24.03 63 21.06 63 18 63 C18 60.03 18 57.06 18 54 C20.97 54 23.94 54 27 54 C27 51.03 27 48.06 27 45 C18.09 45 9.18 45 0 45 C0 42.03 0 39.06 0 36 C-2.97 36 -5.94 36 -9 36 C-9 30.06 -9 24.12 -9 18 C-6.03 18 -3.06 18 0 18 C0 12.06 0 6.12 0 0 Z " fill="#000000" transform="translate(53,88)"/>
<path d="M0 0 C2.97 0 5.94 0 9 0 C9 2.97 9 5.94 9 9 C11.97 9 14.94 9 18 9 C18 6.03 18 3.06 18 0 C20.97 0 23.94 0 27 0 C27 2.97 27 5.94 27 9 C29.97 9 32.94 9 36 9 C36 11.64 36 14.28 36 17 C38.97 17 41.94 17 45 17 C45 19.97 45 22.94 45 26 C39.06 26 33.12 26 27 26 C27 31.94 27 37.88 27 44 C29.97 44 32.94 44 36 44 C36 41.03 36 38.06 36 35 C41.94 35 47.88 35 54 35 C54 37.97 54 40.94 54 44 C59.94 44 65.88 44 72 44 C72 46.97 72 49.94 72 53 C74.64 53 77.28 53 80 53 C80 50.03 80 47.06 80 44 C82.97 44 85.94 44 89 44 C89 49.94 89 55.88 89 62 C86.03 62 83.06 62 80 62 C80 64.97 80 67.94 80 71 C82.97 71 85.94 71 89 71 C89 73.97 89 76.94 89 80 C83.39 80 77.78 80 72 80 C72 77.03 72 74.06 72 71 C69.03 71 66.06 71 63 71 C63 68.03 63 65.06 63 62 C57.06 62 51.12 62 45 62 C45 64.97 45 67.94 45 71 C47.97 71 50.94 71 54 71 C54 73.97 54 76.94 54 80 C56.97 80 59.94 80 63 80 C63 82.97 63 85.94 63 89 C51.12 89 39.24 89 27 89 C27 86.03 27 83.06 27 80 C29.97 80 32.94 80 36 80 C36 77.03 36 74.06 36 71 C30.06 71 24.12 71 18 71 C18 73.97 18 76.94 18 80 C15.03 80 12.06 80 9 80 C9 77.03 9 74.06 9 71 C0.42 71 -8.16 71 -17 71 C-17 73.97 -17 76.94 -17 80 C-14.03 80 -11.06 80 -8 80 C-8 82.97 -8 85.94 -8 89 C-5.36 89 -2.72 89 0 89 C0 94.61 0 100.22 0 106 C-5.61 106 -11.22 106 -17 106 C-17 103.03 -17 100.06 -17 97 C-19.97 97 -22.94 97 -26 97 C-26 105.91 -26 114.82 -26 124 C-28.97 124 -31.94 124 -35 124 C-35 121.03 -35 118.06 -35 115 C-40.94 115 -46.88 115 -53 115 C-53 109.06 -53 103.12 -53 97 C-50.03 97 -47.06 97 -44 97 C-44 94.36 -44 91.72 -44 89 C-38.06 89 -32.12 89 -26 89 C-26 86.03 -26 83.06 -26 80 C-28.97 80 -31.94 80 -35 80 C-35 77.03 -35 74.06 -35 71 C-32.03 71 -29.06 71 -26 71 C-26 62.09 -26 53.18 -26 44 C-28.97 44 -31.94 44 -35 44 C-35 46.97 -35 49.94 -35 53 C-37.97 53 -40.94 53 -44 53 C-44 58.94 -44 64.88 -44 71 C-46.97 71 -49.94 71 -53 71 C-53 65.06 -53 59.12 -53 53 C-55.97 53 -58.94 53 -62 53 C-62 55.97 -62 58.94 -62 62 C-64.97 62 -67.94 62 -71 62 C-71 59.03 -71 56.06 -71 53 C-73.97 53 -76.94 53 -80 53 C-80 47.06 -80 41.12 -80 35 C-74.06 35 -68.12 35 -62 35 C-62 32.03 -62 29.06 -62 26 C-56.06 26 -50.12 26 -44 26 C-44 28.97 -44 31.94 -44 35 C-41.03 35 -38.06 35 -35 35 C-35 32.03 -35 29.06 -35 26 C-32.03 26 -29.06 26 -26 26 C-26 28.97 -26 31.94 -26 35 C-23.03 35 -20.06 35 -17 35 C-17 40.94 -17 46.88 -17 53 C-14.03 53 -11.06 53 -8 53 C-8 44.09 -8 35.18 -8 26 C0.58 26 9.16 26 18 26 C18 23.03 18 20.06 18 17 C12.06 17 6.12 17 0 17 C0 11.39 0 5.78 0 0 Z " fill="#FFFFFF" transform="translate(168,71)"/>
<path d="M0 0 C5.94 0 11.88 0 18 0 C18 2.64 18 5.28 18 8 C15.03 8 12.06 8 9 8 C9 10.97 9 13.94 9 17 C11.97 17 14.94 17 18 17 C18 22.94 18 28.88 18 35 C15.03 35 12.06 35 9 35 C9 37.97 9 40.94 9 44 C6.03 44 3.06 44 0 44 C0 46.97 0 49.94 0 53 C-2.97 53 -5.94 53 -9 53 C-9 55.97 -9 58.94 -9 62 C-11.97 62 -14.94 62 -18 62 C-18 82.46 -18 102.92 -18 124 C-20.97 124 -23.94 124 -27 124 C-27 126.97 -27 129.94 -27 133 C-24.03 133 -21.06 133 -18 133 C-18 135.97 -18 138.94 -18 142 C-32.52 142 -47.04 142 -62 142 C-62 139.03 -62 136.06 -62 133 C-64.97 133 -67.94 133 -71 133 C-71 127.06 -71 121.12 -71 115 C-68.03 115 -65.06 115 -62 115 C-62 103.45 -62 91.9 -62 80 C-64.97 80 -67.94 80 -71 80 C-71 77.03 -71 74.06 -71 71 C-73.97 71 -76.94 71 -80 71 C-80 68.03 -80 65.06 -80 62 C-82.97 62 -85.94 62 -89 62 C-89 53.09 -89 44.18 -89 35 C-86.03 35 -83.06 35 -80 35 C-80 32.03 -80 29.06 -80 26 C-74.06 26 -68.12 26 -62 26 C-62 23.03 -62 20.06 -62 17 C-59.03 17 -56.06 17 -53 17 C-53 28.88 -53 40.76 -53 53 C-47.39 53 -41.78 53 -36 53 C-36 55.97 -36 58.94 -36 62 C-33.03 62 -30.06 62 -27 62 C-27 59.03 -27 56.06 -27 53 C-24.03 53 -21.06 53 -18 53 C-18 44.09 -18 35.18 -18 26 C-15.03 26 -12.06 26 -9 26 C-9 28.97 -9 31.94 -9 35 C-6.03 35 -3.06 35 0 35 C0 29.06 0 23.12 0 17 C-2.97 17 -5.94 17 -9 17 C-9 14.03 -9 11.06 -9 8 C-6.03 8 -3.06 8 0 8 C0 5.36 0 2.72 0 0 Z " fill="#000000" transform="translate(364,240)"/>
<path d="M0 0 C8.91 0 17.82 0 27 0 C27 2.97 27 5.94 27 9 C29.64 9 32.28 9 35 9 C35 6.03 35 3.06 35 0 C37.97 0 40.94 0 44 0 C44 2.97 44 5.94 44 9 C46.97 9 49.94 9 53 9 C53 11.97 53 14.94 53 18 C44.42 18 35.84 18 27 18 C27 20.97 27 23.94 27 27 C29.64 27 32.28 27 35 27 C35 29.97 35 32.94 35 36 C37.97 36 40.94 36 44 36 C44 38.97 44 41.94 44 45 C46.97 45 49.94 45 53 45 C53 47.97 53 50.94 53 54 C55.97 54 58.94 54 62 54 C62 59.94 62 65.88 62 72 C56.06 72 50.12 72 44 72 C44 74.64 44 77.28 44 80 C41.03 80 38.06 80 35 80 C35 82.97 35 85.94 35 89 C32.36 89 29.72 89 27 89 C27 94.94 27 100.88 27 107 C24.03 107 21.06 107 18 107 C18 109.97 18 112.94 18 116 C12.06 116 6.12 116 0 116 C0 118.97 0 121.94 0 125 C-5.94 125 -11.88 125 -18 125 C-18 122.03 -18 119.06 -18 116 C-15.03 116 -12.06 116 -9 116 C-9 113.03 -9 110.06 -9 107 C-6.03 107 -3.06 107 0 107 C0 104.03 0 101.06 0 98 C2.97 98 5.94 98 9 98 C9 95.03 9 92.06 9 89 C6.03 89 3.06 89 0 89 C0 86.03 0 83.06 0 80 C-2.97 80 -5.94 80 -9 80 C-9 74.39 -9 68.78 -9 63 C-6.03 63 -3.06 63 0 63 C0 60.03 0 57.06 0 54 C5.94 54 11.88 54 18 54 C18 45.09 18 36.18 18 27 C12.06 27 6.12 27 0 27 C0 24.03 0 21.06 0 18 C2.97 18 5.94 18 9 18 C9 15.03 9 12.06 9 9 C6.03 9 3.06 9 0 9 C0 6.03 0 3.06 0 0 Z " fill="#000000" transform="translate(213,248)"/>
<path d="M0 0 C20.79 0 41.58 0 63 0 C63 20.79 63 41.58 63 63 C42.21 63 21.42 63 0 63 C0 42.21 0 21.42 0 0 Z " fill="#FFFFFF" transform="translate(17,17)"/>
<path d="M0 0 C2.97 0 5.94 0 9 0 C9 8.91 9 17.82 9 27 C11.97 27 14.94 27 18 27 C18 29.97 18 32.94 18 36 C20.97 36 23.94 36 27 36 C27 41.94 27 47.88 27 54 C24.03 54 21.06 54 18 54 C18 51.03 18 48.06 18 45 C15.03 45 12.06 45 9 45 C9 47.97 9 50.94 9 54 C6.03 54 3.06 54 0 54 C0 51.03 0 48.06 0 45 C-2.97 45 -5.94 45 -9 45 C-9 47.97 -9 50.94 -9 54 C-11.97 54 -14.94 54 -18 54 C-18 51.03 -18 48.06 -18 45 C-20.97 45 -23.94 45 -27 45 C-27 50.61 -27 56.22 -27 62 C-21.06 62 -15.12 62 -9 62 C-9 64.97 -9 67.94 -9 71 C-17.58 71 -26.16 71 -35 71 C-35 79.91 -35 88.82 -35 98 C-37.97 98 -40.94 98 -44 98 C-44 92.06 -44 86.12 -44 80 C-46.97 80 -49.94 80 -53 80 C-53 77.03 -53 74.06 -53 71 C-55.97 71 -58.94 71 -62 71 C-62 73.97 -62 76.94 -62 80 C-64.97 80 -67.94 80 -71 80 C-71 77.03 -71 74.06 -71 71 C-76.94 71 -82.88 71 -89 71 C-89 68.03 -89 65.06 -89 62 C-83.06 62 -77.12 62 -71 62 C-71 50.45 -71 38.9 -71 27 C-68.03 27 -65.06 27 -62 27 C-62 29.97 -62 32.94 -62 36 C-59.03 36 -56.06 36 -53 36 C-53 33.03 -53 30.06 -53 27 C-44.42 27 -35.84 27 -27 27 C-27 29.97 -27 32.94 -27 36 C-18.09 36 -9.18 36 0 36 C0 33.03 0 30.06 0 27 C-2.97 27 -5.94 27 -9 27 C-9 24.03 -9 21.06 -9 18 C-11.97 18 -14.94 18 -18 18 C-18 15.03 -18 12.06 -18 9 C-12.06 9 -6.12 9 0 9 C0 6.03 0 3.06 0 0 Z " fill="#000000" transform="translate(195,26)"/>
<path d="M0 0 C2.97 0 5.94 0 9 0 C9 5.61 9 11.22 9 17 C11.97 17 14.94 17 18 17 C18 14.36 18 11.72 18 9 C29.88 9 41.76 9 54 9 C54 11.64 54 14.28 54 17 C62.58 17 71.16 17 80 17 C80 14.36 80 11.72 80 9 C82.97 9 85.94 9 89 9 C89 26.49 89 43.98 89 62 C86.03 62 83.06 62 80 62 C80 64.97 80 67.94 80 71 C77.03 71 74.06 71 71 71 C71 68.03 71 65.06 71 62 C65.39 62 59.78 62 54 62 C54 50.12 54 38.24 54 26 C51.03 26 48.06 26 45 26 C45 28.97 45 31.94 45 35 C39.06 35 33.12 35 27 35 C27 37.97 27 40.94 27 44 C24.03 44 21.06 44 18 44 C18 52.91 18 61.82 18 71 C15.03 71 12.06 71 9 71 C9 68.03 9 65.06 9 62 C6.03 62 3.06 62 0 62 C0 59.03 0 56.06 0 53 C-2.97 53 -5.94 53 -9 53 C-9 50.03 -9 47.06 -9 44 C-11.64 44 -14.28 44 -17 44 C-17 41.03 -17 38.06 -17 35 C-8.42 35 0.16 35 9 35 C9 32.03 9 29.06 9 26 C6.03 26 3.06 26 0 26 C0 23.03 0 20.06 0 17 C-2.97 17 -5.94 17 -9 17 C-9 14.36 -9 11.72 -9 9 C-6.03 9 -3.06 9 0 9 C0 6.03 0 3.06 0 0 Z " fill="#FFFFFF" transform="translate(257,231)"/>
<path d="M0 0 C20.79 0 41.58 0 63 0 C63 20.46 63 40.92 63 62 C42.21 62 21.42 62 0 62 C0 41.54 0 21.08 0 0 Z " fill="#FFFFFF" transform="translate(17,320)"/>
<path d="M0 0 C20.46 0 40.92 0 62 0 C62 20.79 62 41.58 62 63 C41.54 63 21.08 63 0 63 C0 42.21 0 21.42 0 0 Z " fill="#FFFFFF" transform="translate(320,17)"/>
<path d="M0 0 C5.94 0 11.88 0 18 0 C18 2.97 18 5.94 18 9 C15.03 9 12.06 9 9 9 C9 14.94 9 20.88 9 27 C11.97 27 14.94 27 18 27 C18 24.03 18 21.06 18 18 C20.97 18 23.94 18 27 18 C27 15.03 27 12.06 27 9 C32.94 9 38.88 9 45 9 C45 11.97 45 14.94 45 18 C42.03 18 39.06 18 36 18 C36 20.97 36 23.94 36 27 C38.97 27 41.94 27 45 27 C45 32.94 45 38.88 45 45 C39.06 45 33.12 45 27 45 C27 47.97 27 50.94 27 54 C21.06 54 15.12 54 9 54 C9 59.61 9 65.22 9 71 C6.03 71 3.06 71 0 71 C0 73.97 0 76.94 0 80 C-5.61 80 -11.22 80 -17 80 C-17 82.97 -17 85.94 -17 89 C-19.97 89 -22.94 89 -26 89 C-26 83.06 -26 77.12 -26 71 C-28.97 71 -31.94 71 -35 71 C-35 68.03 -35 65.06 -35 62 C-37.97 62 -40.94 62 -44 62 C-44 59.36 -44 56.72 -44 54 C-29.48 54 -14.96 54 0 54 C0 45.09 0 36.18 0 27 C-5.61 27 -11.22 27 -17 27 C-17 24.03 -17 21.06 -17 18 C-14.03 18 -11.06 18 -8 18 C-8 15.03 -8 12.06 -8 9 C-5.36 9 -2.72 9 0 9 C0 6.03 0 3.06 0 0 Z " fill="#FFFFFF" transform="translate(88,186)"/>
<path d="M0 0 C11.88 0 23.76 0 36 0 C36 2.97 36 5.94 36 9 C33.03 9 30.06 9 27 9 C27 17.91 27 26.82 27 36 C29.97 36 32.94 36 36 36 C36 41.94 36 47.88 36 54 C33.03 54 30.06 54 27 54 C27 51.03 27 48.06 27 45 C24.03 45 21.06 45 18 45 C18 47.97 18 50.94 18 54 C15.03 54 12.06 54 9 54 C9 56.97 9 59.94 9 63 C6.03 63 3.06 63 0 63 C0 65.64 0 68.28 0 71 C-2.97 71 -5.94 71 -9 71 C-9 73.97 -9 76.94 -9 80 C-11.97 80 -14.94 80 -18 80 C-18 71.42 -18 62.84 -18 54 C-20.64 54 -23.28 54 -26 54 C-26 51.03 -26 48.06 -26 45 C-20.39 45 -14.78 45 -9 45 C-9 36.09 -9 27.18 -9 18 C-6.03 18 -3.06 18 0 18 C0 20.97 0 23.94 0 27 C2.97 27 5.94 27 9 27 C9 24.03 9 21.06 9 18 C11.97 18 14.94 18 18 18 C18 15.03 18 12.06 18 9 C12.06 9 6.12 9 0 9 C0 6.03 0 3.06 0 0 Z " fill="#000000" transform="translate(266,17)"/>
<path d="M0 0 C2.97 0 5.94 0 9 0 C9 2.97 9 5.94 9 9 C14.94 9 20.88 9 27 9 C27 6.03 27 3.06 27 0 C29.97 0 32.94 0 36 0 C36 17.82 36 35.64 36 54 C33.03 54 30.06 54 27 54 C27 56.97 27 59.94 27 63 C18.09 63 9.18 63 0 63 C0 54.09 0 45.18 0 36 C-2.97 36 -5.94 36 -9 36 C-9 27.09 -9 18.18 -9 9 C-6.03 9 -3.06 9 0 9 C0 6.03 0 3.06 0 0 Z " fill="#000000" transform="translate(346,88)"/>
<path d="M0 0 C5.94 0 11.88 0 18 0 C18 5.94 18 11.88 18 18 C23.94 18 29.88 18 36 18 C36 15.03 36 12.06 36 9 C33.03 9 30.06 9 27 9 C27 6.03 27 3.06 27 0 C32.61 0 38.22 0 44 0 C44 8.91 44 17.82 44 27 C29.48 27 14.96 27 0 27 C0 29.64 0 32.28 0 35 C2.97 35 5.94 35 9 35 C9 37.97 9 40.94 9 44 C11.97 44 14.94 44 18 44 C18 49.94 18 55.88 18 62 C12.06 62 6.12 62 0 62 C0 59.03 0 56.06 0 53 C-5.94 53 -11.88 53 -18 53 C-18 50.03 -18 47.06 -18 44 C-20.97 44 -23.94 44 -27 44 C-27 35.42 -27 26.84 -27 18 C-15.12 18 -3.24 18 9 18 C9 15.03 9 12.06 9 9 C6.03 9 3.06 9 0 9 C0 6.03 0 3.06 0 0 Z " fill="#000000" transform="translate(44,213)"/>
<path d="M0 0 C5.61 0 11.22 0 17 0 C17 11.55 17 23.1 17 35 C19.97 35 22.94 35 26 35 C26 37.97 26 40.94 26 44 C20.39 44 14.78 44 9 44 C9 49.94 9 55.88 9 62 C6.03 62 3.06 62 0 62 C0 56.06 0 50.12 0 44 C-2.97 44 -5.94 44 -9 44 C-9 49.94 -9 55.88 -9 62 C-11.97 62 -14.94 62 -18 62 C-18 64.97 -18 67.94 -18 71 C-20.97 71 -23.94 71 -27 71 C-27 65.06 -27 59.12 -27 53 C-38.88 53 -50.76 53 -63 53 C-63 50.03 -63 47.06 -63 44 C-51.12 44 -39.24 44 -27 44 C-27 41.03 -27 38.06 -27 35 C-21.06 35 -15.12 35 -9 35 C-9 32.03 -9 29.06 -9 26 C-3.06 26 2.88 26 9 26 C9 23.03 9 20.06 9 17 C6.03 17 3.06 17 0 17 C0 11.39 0 5.78 0 0 Z " fill="#000000" transform="translate(151,240)"/>
<path d="M0 0 C20.79 0 41.58 0 63 0 C63 20.79 63 41.58 63 63 C42.21 63 21.42 63 0 63 C0 42.21 0 21.42 0 0 Z M9 9 C9 23.85 9 38.7 9 54 C23.85 54 38.7 54 54 54 C54 39.15 54 24.3 54 9 C39.15 9 24.3 9 9 9 Z " fill="#000000" transform="translate(17,17)"/>
<path d="M0 0 C20.79 0 41.58 0 63 0 C63 20.46 63 40.92 63 62 C42.21 62 21.42 62 0 62 C0 41.54 0 21.08 0 0 Z M9 8 C9 22.85 9 37.7 9 53 C23.85 53 38.7 53 54 53 C54 38.15 54 23.3 54 8 C39.15 8 24.3 8 9 8 Z " fill="#000000" transform="translate(17,320)"/>
<path d="M0 0 C20.46 0 40.92 0 62 0 C62 20.79 62 41.58 62 63 C41.54 63 21.08 63 0 63 C0 42.21 0 21.42 0 0 Z M8 9 C8 23.85 8 38.7 8 54 C22.85 54 37.7 54 53 54 C53 39.15 53 24.3 53 9 C38.15 9 23.3 9 8 9 Z " fill="#000000" transform="translate(320,17)"/>
<path d="M0 0 C20.79 0 41.58 0 63 0 C63 5.94 63 11.88 63 18 C60.03 18 57.06 18 54 18 C54 23.94 54 29.88 54 36 C56.97 36 59.94 36 63 36 C63 38.97 63 41.94 63 45 C57.06 45 51.12 45 45 45 C45 39.06 45 33.12 45 27 C36.09 27 27.18 27 18 27 C18 29.97 18 32.94 18 36 C12.06 36 6.12 36 0 36 C0 30.06 0 24.12 0 18 C5.94 18 11.88 18 18 18 C18 15.03 18 12.06 18 9 C12.06 9 6.12 9 0 9 C0 6.03 0 3.06 0 0 Z " fill="#FFFFFF" transform="translate(17,186)"/>
<path d="M0 0 C2.97 0 5.94 0 9 0 C9 5.94 9 11.88 9 18 C11.97 18 14.94 18 18 18 C18 29.55 18 41.1 18 53 C15.03 53 12.06 53 9 53 C9 47.39 9 41.78 9 36 C6.03 36 3.06 36 0 36 C0 41.61 0 47.22 0 53 C-5.94 53 -11.88 53 -18 53 C-18 50.03 -18 47.06 -18 44 C-15.03 44 -12.06 44 -9 44 C-9 41.36 -9 38.72 -9 36 C-14.94 36 -20.88 36 -27 36 C-27 27.09 -27 18.18 -27 9 C-24.03 9 -21.06 9 -18 9 C-18 11.97 -18 14.94 -18 18 C-12.06 18 -6.12 18 0 18 C0 12.06 0 6.12 0 0 Z " fill="#FFFFFF" transform="translate(302,124)"/>
<path d="M0 0 C11.88 0 23.76 0 36 0 C36 2.97 36 5.94 36 9 C38.97 9 41.94 9 45 9 C45 11.97 45 14.94 45 18 C39.06 18 33.12 18 27 18 C27 15.03 27 12.06 27 9 C24.03 9 21.06 9 18 9 C18 11.97 18 14.94 18 18 C15.03 18 12.06 18 9 18 C9 20.97 9 23.94 9 27 C3.06 27 -2.88 27 -9 27 C-9 29.97 -9 32.94 -9 36 C-11.97 36 -14.94 36 -18 36 C-18 33.03 -18 30.06 -18 27 C-20.97 27 -23.94 27 -27 27 C-27 24.03 -27 21.06 -27 18 C-24.03 18 -21.06 18 -18 18 C-18 15.03 -18 12.06 -18 9 C-15.03 9 -12.06 9 -9 9 C-9 11.97 -9 14.94 -9 18 C-6.03 18 -3.06 18 0 18 C0 12.06 0 6.12 0 0 Z " fill="#000000" transform="translate(115,26)"/>
<path d="M0 0 C5.94 0 11.88 0 18 0 C18 5.94 18 11.88 18 18 C23.94 18 29.88 18 36 18 C36 26.91 36 35.82 36 45 C30.06 45 24.12 45 18 45 C18 42.03 18 39.06 18 36 C12.06 36 6.12 36 0 36 C0 30.06 0 24.12 0 18 C2.97 18 5.94 18 9 18 C9 15.03 9 12.06 9 9 C6.03 9 3.06 9 0 9 C0 6.03 0 3.06 0 0 Z " fill="#000000" transform="translate(248,337)"/>
<path d="M0 0 C2.97 0 5.94 0 9 0 C9 2.64 9 5.28 9 8 C11.97 8 14.94 8 18 8 C18 5.36 18 2.72 18 0 C20.97 0 23.94 0 27 0 C27 5.61 27 11.22 27 17 C29.97 17 32.94 17 36 17 C36 19.97 36 22.94 36 26 C30.06 26 24.12 26 18 26 C18 28.97 18 31.94 18 35 C12.06 35 6.12 35 0 35 C0 29.06 0 23.12 0 17 C-5.94 17 -11.88 17 -18 17 C-18 14.03 -18 11.06 -18 8 C-12.06 8 -6.12 8 0 8 C0 5.36 0 2.72 0 0 Z " fill="#FFFFFF" transform="translate(124,240)"/>
<path d="M0 0 C5.94 0 11.88 0 18 0 C18 2.97 18 5.94 18 9 C20.97 9 23.94 9 27 9 C27 11.97 27 14.94 27 18 C32.61 18 38.22 18 44 18 C44 20.97 44 23.94 44 27 C41.03 27 38.06 27 35 27 C35 29.97 35 32.94 35 36 C32.36 36 29.72 36 27 36 C27 33.03 27 30.06 27 27 C21.06 27 15.12 27 9 27 C9 24.03 9 21.06 9 18 C3.06 18 -2.88 18 -9 18 C-9 20.97 -9 23.94 -9 27 C-11.97 27 -14.94 27 -18 27 C-18 21.06 -18 15.12 -18 9 C-12.06 9 -6.12 9 0 9 C0 6.03 0 3.06 0 0 Z " fill="#000000" transform="translate(213,88)"/>
<path d="M0 0 C2.97 0 5.94 0 9 0 C9 8.58 9 17.16 9 26 C11.97 26 14.94 26 18 26 C18 28.97 18 31.94 18 35 C15.03 35 12.06 35 9 35 C9 37.97 9 40.94 9 44 C14.94 44 20.88 44 27 44 C27 46.97 27 49.94 27 53 C18.09 53 9.18 53 0 53 C0 55.97 0 58.94 0 62 C-2.97 62 -5.94 62 -9 62 C-9 56.06 -9 50.12 -9 44 C-6.03 44 -3.06 44 0 44 C0 35.09 0 26.18 0 17 C-2.97 17 -5.94 17 -9 17 C-9 14.03 -9 11.06 -9 8 C-6.03 8 -3.06 8 0 8 C0 5.36 0 2.72 0 0 Z " fill="#000000" transform="translate(186,240)"/>
<path d="M0 0 C2.97 0 5.94 0 9 0 C9 8.91 9 17.82 9 27 C6.03 27 3.06 27 0 27 C0 29.97 0 32.94 0 36 C2.97 36 5.94 36 9 36 C9 38.97 9 41.94 9 45 C3.06 45 -2.88 45 -9 45 C-9 47.64 -9 50.28 -9 53 C-11.97 53 -14.94 53 -18 53 C-18 50.36 -18 47.72 -18 45 C-20.97 45 -23.94 45 -27 45 C-27 42.03 -27 39.06 -27 36 C-24.03 36 -21.06 36 -18 36 C-18 33.03 -18 30.06 -18 27 C-15.03 27 -12.06 27 -9 27 C-9 21.06 -9 15.12 -9 9 C-6.03 9 -3.06 9 0 9 C0 6.03 0 3.06 0 0 Z " fill="#000000" transform="translate(133,115)"/>
<path d="M0 0 C2.64 0 5.28 0 8 0 C8 2.97 8 5.94 8 9 C10.97 9 13.94 9 17 9 C17 11.97 17 14.94 17 18 C19.97 18 22.94 18 26 18 C26 20.64 26 23.28 26 26 C23.03 26 20.06 26 17 26 C17 28.97 17 31.94 17 35 C19.97 35 22.94 35 26 35 C26 43.91 26 52.82 26 62 C23.03 62 20.06 62 17 62 C17 59.03 17 56.06 17 53 C14.03 53 11.06 53 8 53 C8 41.45 8 29.9 8 18 C2.39 18 -3.22 18 -9 18 C-9 15.03 -9 12.06 -9 9 C-6.03 9 -3.06 9 0 9 C0 6.03 0 3.06 0 0 Z " fill="#FFFFFF" transform="translate(160,222)"/>
<path d="M0 0 C2.97 0 5.94 0 9 0 C9 2.97 9 5.94 9 9 C11.97 9 14.94 9 18 9 C18 11.97 18 14.94 18 18 C20.97 18 23.94 18 27 18 C27 20.64 27 23.28 27 26 C24.03 26 21.06 26 18 26 C18 28.97 18 31.94 18 35 C20.97 35 23.94 35 27 35 C27 40.94 27 46.88 27 53 C24.03 53 21.06 53 18 53 C18 50.03 18 47.06 18 44 C15.03 44 12.06 44 9 44 C9 35.42 9 26.84 9 18 C6.03 18 3.06 18 0 18 C0 20.64 0 23.28 0 26 C-5.61 26 -11.22 26 -17 26 C-17 23.36 -17 20.72 -17 18 C-14.36 18 -11.72 18 -9 18 C-9 15.03 -9 12.06 -9 9 C-6.03 9 -3.06 9 0 9 C0 6.03 0 3.06 0 0 Z " fill="#FFFFFF" transform="translate(337,222)"/>
<path d="M0 0 C11.88 0 23.76 0 36 0 C36 2.97 36 5.94 36 9 C33.03 9 30.06 9 27 9 C27 14.94 27 20.88 27 27 C24.03 27 21.06 27 18 27 C18 29.97 18 32.94 18 36 C12.06 36 6.12 36 0 36 C0 30.06 0 24.12 0 18 C5.94 18 11.88 18 18 18 C18 15.03 18 12.06 18 9 C12.06 9 6.12 9 0 9 C0 6.03 0 3.06 0 0 Z " fill="#000000" transform="translate(17,186)"/>
<path d="M0 0 C2.97 0 5.94 0 9 0 C9 5.94 9 11.88 9 18 C6.03 18 3.06 18 0 18 C0 20.97 0 23.94 0 27 C-8.91 27 -17.82 27 -27 27 C-27 24.03 -27 21.06 -27 18 C-32.94 18 -38.88 18 -45 18 C-45 15.03 -45 12.06 -45 9 C-36.09 9 -27.18 9 -18 9 C-18 11.97 -18 14.94 -18 18 C-15.03 18 -12.06 18 -9 18 C-9 15.03 -9 12.06 -9 9 C-6.03 9 -3.06 9 0 9 C0 6.03 0 3.06 0 0 Z " fill="#000000" transform="translate(151,328)"/>
<path d="M0 0 C8.91 0 17.82 0 27 0 C27 8.91 27 17.82 27 27 C18.09 27 9.18 27 0 27 C0 18.09 0 9.18 0 0 Z " fill="#000000" transform="translate(35,337)"/>
<path d="M0 0 C8.91 0 17.82 0 27 0 C27 8.91 27 17.82 27 27 C18.09 27 9.18 27 0 27 C0 18.09 0 9.18 0 0 Z " fill="#000000" transform="translate(337,35)"/>
<path d="M0 0 C8.91 0 17.82 0 27 0 C27 8.91 27 17.82 27 27 C18.09 27 9.18 27 0 27 C0 18.09 0 9.18 0 0 Z " fill="#000000" transform="translate(35,35)"/>
<path d="M0 0 C2.97 0 5.94 0 9 0 C9 2.97 9 5.94 9 9 C11.97 9 14.94 9 18 9 C18 6.03 18 3.06 18 0 C23.94 0 29.88 0 36 0 C36 5.94 36 11.88 36 18 C18.51 18 1.02 18 -17 18 C-17 15.03 -17 12.06 -17 9 C-11.39 9 -5.78 9 0 9 C0 6.03 0 3.06 0 0 Z " fill="#000000" transform="translate(88,257)"/>
<path d="M0 0 C2.97 0 5.94 0 9 0 C9 8.91 9 17.82 9 27 C11.64 27 14.28 27 17 27 C17 29.97 17 32.94 17 36 C14.36 36 11.72 36 9 36 C9 41.94 9 47.88 9 54 C6.03 54 3.06 54 0 54 C0 48.06 0 42.12 0 36 C-2.97 36 -5.94 36 -9 36 C-9 33.03 -9 30.06 -9 27 C-6.03 27 -3.06 27 0 27 C0 24.03 0 21.06 0 18 C-2.97 18 -5.94 18 -9 18 C-9 15.03 -9 12.06 -9 9 C-6.03 9 -3.06 9 0 9 C0 6.03 0 3.06 0 0 Z " fill="#000000" transform="translate(311,88)"/>
<path d="M0 0 C2.97 0 5.94 0 9 0 C9 5.61 9 11.22 9 17 C11.97 17 14.94 17 18 17 C18 19.97 18 22.94 18 26 C15.03 26 12.06 26 9 26 C9 28.97 9 31.94 9 35 C11.97 35 14.94 35 18 35 C18 37.97 18 40.94 18 44 C15.03 44 12.06 44 9 44 C9 46.97 9 49.94 9 53 C6.03 53 3.06 53 0 53 C0 44.09 0 35.18 0 26 C-2.97 26 -5.94 26 -9 26 C-9 23.03 -9 20.06 -9 17 C-6.03 17 -3.06 17 0 17 C0 11.39 0 5.78 0 0 Z " fill="#FFFFFF" transform="translate(293,71)"/>
<path d="M0 0 C8.58 0 17.16 0 26 0 C26 8.58 26 17.16 26 26 C17.42 26 8.84 26 0 26 C0 17.42 0 8.84 0 0 Z " fill="#FFFFFF" transform="translate(311,311)"/>
<path d="M0 0 C2.97 0 5.94 0 9 0 C9 8.58 9 17.16 9 26 C6.03 26 3.06 26 0 26 C0 28.97 0 31.94 0 35 C-2.97 35 -5.94 35 -9 35 C-9 32.03 -9 29.06 -9 26 C-11.97 26 -14.94 26 -18 26 C-18 20.06 -18 14.12 -18 8 C-12.06 8 -6.12 8 0 8 C0 5.36 0 2.72 0 0 Z " fill="#000000" transform="translate(373,160)"/>
<path d="M0 0 C8.91 0 17.82 0 27 0 C27 2.97 27 5.94 27 9 C32.61 9 38.22 9 44 9 C44 11.97 44 14.94 44 18 C35.42 18 26.84 18 18 18 C18 20.97 18 23.94 18 27 C15.03 27 12.06 27 9 27 C9 21.06 9 15.12 9 9 C6.03 9 3.06 9 0 9 C0 6.03 0 3.06 0 0 Z " fill="#000000" transform="translate(204,17)"/>
<path d="M0 0 C2.97 0 5.94 0 9 0 C9 2.97 9 5.94 9 9 C11.97 9 14.94 9 18 9 C18 14.94 18 20.88 18 27 C12.06 27 6.12 27 0 27 C0 24.03 0 21.06 0 18 C-5.94 18 -11.88 18 -18 18 C-18 15.03 -18 12.06 -18 9 C-12.06 9 -6.12 9 0 9 C0 6.03 0 3.06 0 0 Z " fill="#000000" transform="translate(44,248)"/>
<path d="M0 0 C5.94 0 11.88 0 18 0 C18 11.55 18 23.1 18 35 C12.06 35 6.12 35 0 35 C0 32.36 0 29.72 0 27 C2.97 27 5.94 27 9 27 C9 24.03 9 21.06 9 18 C6.03 18 3.06 18 0 18 C0 12.06 0 6.12 0 0 Z " fill="#000000" transform="translate(364,293)"/>
<path d="M0 0 C2.97 0 5.94 0 9 0 C9 5.94 9 11.88 9 18 C6.03 18 3.06 18 0 18 C0 20.97 0 23.94 0 27 C2.97 27 5.94 27 9 27 C9 29.97 9 32.94 9 36 C3.39 36 -2.22 36 -8 36 C-8 33.03 -8 30.06 -8 27 C-10.97 27 -13.94 27 -17 27 C-17 24.03 -17 21.06 -17 18 C-14.03 18 -11.06 18 -8 18 C-8 15.03 -8 12.06 -8 9 C-5.36 9 -2.72 9 0 9 C0 6.03 0 3.06 0 0 Z " fill="#FFFFFF" transform="translate(248,115)"/>
<path d="M0 0 C5.61 0 11.22 0 17 0 C17 8.58 17 17.16 17 26 C14.03 26 11.06 26 8 26 C8 28.97 8 31.94 8 35 C5.36 35 2.72 35 0 35 C0 23.45 0 11.9 0 0 Z " fill="#000000" transform="translate(320,142)"/>
<path d="M0 0 C11.88 0 23.76 0 36 0 C36 5.94 36 11.88 36 18 C30.06 18 24.12 18 18 18 C18 15.03 18 12.06 18 9 C12.06 9 6.12 9 0 9 C0 6.03 0 3.06 0 0 Z " fill="#000000" transform="translate(88,355)"/>
<path d="M0 0 C2.97 0 5.94 0 9 0 C9 8.91 9 17.82 9 27 C0.09 27 -8.82 27 -18 27 C-18 24.03 -18 21.06 -18 18 C-15.03 18 -12.06 18 -9 18 C-9 15.03 -9 12.06 -9 9 C-6.03 9 -3.06 9 0 9 C0 6.03 0 3.06 0 0 Z " fill="#000000" transform="translate(373,195)"/>
<path d="M0 0 C5.94 0 11.88 0 18 0 C18 5.94 18 11.88 18 18 C15.03 18 12.06 18 9 18 C9 23.94 9 29.88 9 36 C6.03 36 3.06 36 0 36 C0 24.12 0 12.24 0 0 Z " fill="#000000" transform="translate(17,97)"/>
<path d="M0 0 C5.61 0 11.22 0 17 0 C17 2.97 17 5.94 17 9 C14.03 9 11.06 9 8 9 C8 11.97 8 14.94 8 18 C5.36 18 2.72 18 0 18 C0 20.97 0 23.94 0 27 C-2.97 27 -5.94 27 -9 27 C-9 24.03 -9 21.06 -9 18 C-11.97 18 -14.94 18 -18 18 C-18 15.03 -18 12.06 -18 9 C-12.06 9 -6.12 9 0 9 C0 6.03 0 3.06 0 0 Z " fill="#FFFFFF" transform="translate(320,346)"/>
<path d="M0 0 C2.97 0 5.94 0 9 0 C9 2.97 9 5.94 9 9 C14.61 9 20.22 9 26 9 C26 11.97 26 14.94 26 18 C23.03 18 20.06 18 17 18 C17 20.97 17 23.94 17 27 C14.36 27 11.72 27 9 27 C9 24.03 9 21.06 9 18 C3.06 18 -2.88 18 -9 18 C-9 15.03 -9 12.06 -9 9 C-6.03 9 -3.06 9 0 9 C0 6.03 0 3.06 0 0 Z " fill="#000000" transform="translate(231,97)"/>
<path d="M0 0 C5.94 0 11.88 0 18 0 C18 2.97 18 5.94 18 9 C20.97 9 23.94 9 27 9 C27 11.97 27 14.94 27 18 C18.09 18 9.18 18 0 18 C0 12.06 0 6.12 0 0 Z " fill="#000000" transform="translate(355,364)"/>
<path d="M0 0 C5.94 0 11.88 0 18 0 C18 8.91 18 17.82 18 27 C12.06 27 6.12 27 0 27 C0 24.03 0 21.06 0 18 C2.97 18 5.94 18 9 18 C9 15.03 9 12.06 9 9 C6.03 9 3.06 9 0 9 C0 6.03 0 3.06 0 0 Z " fill="#000000" transform="translate(266,355)"/>
<path d="M0 0 C2.97 0 5.94 0 9 0 C9 2.97 9 5.94 9 9 C11.97 9 14.94 9 18 9 C18 11.97 18 14.94 18 18 C15.03 18 12.06 18 9 18 C9 20.97 9 23.94 9 27 C3.06 27 -2.88 27 -9 27 C-9 24.03 -9 21.06 -9 18 C-6.03 18 -3.06 18 0 18 C0 12.06 0 6.12 0 0 Z " fill="#FFFFFF" transform="translate(293,204)"/>
<path d="M0 0 C2.97 0 5.94 0 9 0 C9 2.97 9 5.94 9 9 C11.97 9 14.94 9 18 9 C18 11.97 18 14.94 18 18 C15.03 18 12.06 18 9 18 C9 20.97 9 23.94 9 27 C6.03 27 3.06 27 0 27 C0 24.03 0 21.06 0 18 C-2.97 18 -5.94 18 -9 18 C-9 15.03 -9 12.06 -9 9 C-6.03 9 -3.06 9 0 9 C0 6.03 0 3.06 0 0 Z " fill="#FFFFFF" transform="translate(355,186)"/>
<path d="M0 0 C2.97 0 5.94 0 9 0 C9 2.97 9 5.94 9 9 C11.97 9 14.94 9 18 9 C18 17.91 18 26.82 18 36 C15.03 36 12.06 36 9 36 C9 30.06 9 24.12 9 18 C6.03 18 3.06 18 0 18 C0 12.06 0 6.12 0 0 Z " fill="#FFFFFF" transform="translate(346,106)"/>
<path d="M0 0 C2.97 0 5.94 0 9 0 C9 8.58 9 17.16 9 26 C6.03 26 3.06 26 0 26 C0 23.03 0 20.06 0 17 C-5.61 17 -11.22 17 -17 17 C-17 14.03 -17 11.06 -17 8 C-11.39 8 -5.78 8 0 8 C0 5.36 0 2.72 0 0 Z " fill="#000000" transform="translate(337,240)"/>
<path d="M0 0 C2.97 0 5.94 0 9 0 C9 2.97 9 5.94 9 9 C14.94 9 20.88 9 27 9 C27 11.64 27 14.28 27 17 C15.12 17 3.24 17 -9 17 C-9 14.36 -9 11.72 -9 9 C-6.03 9 -3.06 9 0 9 C0 6.03 0 3.06 0 0 Z " fill="#000000" transform="translate(115,311)"/>
<path d="M0 0 C2.97 0 5.94 0 9 0 C9 5.94 9 11.88 9 18 C0.09 18 -8.82 18 -18 18 C-18 15.03 -18 12.06 -18 9 C-12.06 9 -6.12 9 0 9 C0 6.03 0 3.06 0 0 Z " fill="#000000" transform="translate(142,364)"/>
<path d="M0 0 C11.88 0 23.76 0 36 0 C36 2.97 36 5.94 36 9 C24.12 9 12.24 9 0 9 C0 6.03 0 3.06 0 0 Z " fill="#000000" transform="translate(88,284)"/>
<path d="M0 0 C2.97 0 5.94 0 9 0 C9 8.91 9 17.82 9 27 C3.06 27 -2.88 27 -9 27 C-9 24.03 -9 21.06 -9 18 C-6.03 18 -3.06 18 0 18 C0 12.06 0 6.12 0 0 Z " fill="#000000" transform="translate(53,284)"/>
<path d="M0 0 C5.94 0 11.88 0 18 0 C18 2.97 18 5.94 18 9 C15.03 9 12.06 9 9 9 C9 14.94 9 20.88 9 27 C6.03 27 3.06 27 0 27 C0 18.09 0 9.18 0 0 Z " fill="#FFFFFF" transform="translate(44,275)"/>
<path d="M0 0 C2.97 0 5.94 0 9 0 C9 8.91 9 17.82 9 27 C3.06 27 -2.88 27 -9 27 C-9 24.03 -9 21.06 -9 18 C-6.03 18 -3.06 18 0 18 C0 12.06 0 6.12 0 0 Z " fill="#000000" transform="translate(35,275)"/>
<path d="M0 0 C2.97 0 5.94 0 9 0 C9 2.97 9 5.94 9 9 C11.97 9 14.94 9 18 9 C18 11.97 18 14.94 18 18 C9.09 18 0.18 18 -9 18 C-9 15.03 -9 12.06 -9 9 C-6.03 9 -3.06 9 0 9 C0 6.03 0 3.06 0 0 Z " fill="#000000" transform="translate(62,168)"/>
<path d="M0 0 C2.97 0 5.94 0 9 0 C9 5.94 9 11.88 9 18 C0.42 18 -8.16 18 -17 18 C-17 15.03 -17 12.06 -17 9 C-11.39 9 -5.78 9 0 9 C0 6.03 0 3.06 0 0 Z " fill="#000000" transform="translate(177,364)"/>
<path d="M0 0 C2.97 0 5.94 0 9 0 C9 2.64 9 5.28 9 8 C11.97 8 14.94 8 18 8 C18 10.97 18 13.94 18 17 C15.03 17 12.06 17 9 17 C9 19.97 9 22.94 9 26 C6.03 26 3.06 26 0 26 C0 17.42 0 8.84 0 0 Z " fill="#FFFFFF" transform="translate(195,240)"/>
<path d="M0 0 C5.94 0 11.88 0 18 0 C18 2.64 18 5.28 18 8 C15.03 8 12.06 8 9 8 C9 10.97 9 13.94 9 17 C3.06 17 -2.88 17 -9 17 C-9 14.03 -9 11.06 -9 8 C-6.03 8 -3.06 8 0 8 C0 5.36 0 2.72 0 0 Z " fill="#FFFFFF" transform="translate(257,320)"/>
<path d="M0 0 C8.58 0 17.16 0 26 0 C26 2.97 26 5.94 26 9 C20.06 9 14.12 9 8 9 C8 11.97 8 14.94 8 18 C5.36 18 2.72 18 0 18 C0 12.06 0 6.12 0 0 Z " fill="#FFFFFF" transform="translate(240,302)"/>
<path d="M0 0 C8.58 0 17.16 0 26 0 C26 2.97 26 5.94 26 9 C23.03 9 20.06 9 17 9 C17 11.97 17 14.94 17 18 C14.36 18 11.72 18 9 18 C9 15.03 9 12.06 9 9 C6.03 9 3.06 9 0 9 C0 6.03 0 3.06 0 0 Z " fill="#000000" transform="translate(151,142)"/>
<path d="M0 0 C2.97 0 5.94 0 9 0 C9 2.97 9 5.94 9 9 C11.97 9 14.94 9 18 9 C18 11.97 18 14.94 18 18 C12.06 18 6.12 18 0 18 C0 12.06 0 6.12 0 0 Z " fill="#FFFFFF" transform="translate(284,284)"/>
<path d="M0 0 C2.97 0 5.94 0 9 0 C9 2.97 9 5.94 9 9 C11.97 9 14.94 9 18 9 C18 11.97 18 14.94 18 18 C12.06 18 6.12 18 0 18 C0 12.06 0 6.12 0 0 Z " fill="#FFFFFF" transform="translate(62,213)"/>
<path d="M0 0 C2.97 0 5.94 0 9 0 C9 5.94 9 11.88 9 18 C3.06 18 -2.88 18 -9 18 C-9 15.03 -9 12.06 -9 9 C-6.03 9 -3.06 9 0 9 C0 6.03 0 3.06 0 0 Z " fill="#FFFFFF" transform="translate(257,204)"/>
<path d="M0 0 C2.97 0 5.94 0 9 0 C9 2.97 9 5.94 9 9 C11.97 9 14.94 9 18 9 C18 11.97 18 14.94 18 18 C12.06 18 6.12 18 0 18 C0 12.06 0 6.12 0 0 Z " fill="#FFFFFF" transform="translate(213,195)"/>
<path d="M0 0 C2.97 0 5.94 0 9 0 C9 2.97 9 5.94 9 9 C11.97 9 14.94 9 18 9 C18 11.97 18 14.94 18 18 C12.06 18 6.12 18 0 18 C0 12.06 0 6.12 0 0 Z " fill="#FFFFFF" transform="translate(44,195)"/>
<path d="M0 0 C5.94 0 11.88 0 18 0 C18 2.97 18 5.94 18 9 C15.03 9 12.06 9 9 9 C9 11.97 9 14.94 9 18 C6.03 18 3.06 18 0 18 C0 12.06 0 6.12 0 0 Z " fill="#FFFFFF" transform="translate(248,168)"/>
<path d="M0 0 C5.94 0 11.88 0 18 0 C18 5.94 18 11.88 18 18 C15.03 18 12.06 18 9 18 C9 15.03 9 12.06 9 9 C6.03 9 3.06 9 0 9 C0 6.03 0 3.06 0 0 Z " fill="#FFFFFF" transform="translate(186,168)"/>
<path d="M0 0 C8.91 0 17.82 0 27 0 C27 2.97 27 5.94 27 9 C18.09 9 9.18 9 0 9 C0 6.03 0 3.06 0 0 Z " fill="#000000" transform="translate(26,151)"/>
<path d="M0 0 C2.97 0 5.94 0 9 0 C9 5.94 9 11.88 9 18 C3.06 18 -2.88 18 -9 18 C-9 15.03 -9 12.06 -9 9 C-6.03 9 -3.06 9 0 9 C0 6.03 0 3.06 0 0 Z " fill="#000000" transform="translate(293,124)"/>
<path d="M0 0 C5.94 0 11.88 0 18 0 C18 5.61 18 11.22 18 17 C15.03 17 12.06 17 9 17 C9 14.36 9 11.72 9 9 C6.03 9 3.06 9 0 9 C0 6.03 0 3.06 0 0 Z " fill="#000000" transform="translate(168,311)"/>
<path d="M0 0 C5.94 0 11.88 0 18 0 C18 5.61 18 11.22 18 17 C15.03 17 12.06 17 9 17 C9 14.36 9 11.72 9 9 C6.03 9 3.06 9 0 9 C0 6.03 0 3.06 0 0 Z " fill="#000000" transform="translate(195,231)"/>
<path d="M0 0 C2.97 0 5.94 0 9 0 C9 5.61 9 11.22 9 17 C3.06 17 -2.88 17 -9 17 C-9 14.03 -9 11.06 -9 8 C-6.03 8 -3.06 8 0 8 C0 5.36 0 2.72 0 0 Z " fill="#FFFFFF" transform="translate(293,160)"/>
<path d="M0 0 C2.97 0 5.94 0 9 0 C9 8.58 9 17.16 9 26 C6.03 26 3.06 26 0 26 C0 17.42 0 8.84 0 0 Z " fill="#FFFFFF" transform="translate(151,62)"/>
<path d="M0 0 C2.64 0 5.28 0 8 0 C8 5.61 8 11.22 8 17 C2.39 17 -3.22 17 -9 17 C-9 14.03 -9 11.06 -9 8 C-6.03 8 -3.06 8 0 8 C0 5.36 0 2.72 0 0 Z " fill="#FFFFFF" transform="translate(160,160)"/>
<path d="M0 0 C2.97 0 5.94 0 9 0 C9 5.94 9 11.88 9 18 C6.03 18 3.06 18 0 18 C0 12.06 0 6.12 0 0 Z " fill="#000000" transform="translate(195,337)"/>
<path d="M0 0 C2.97 0 5.94 0 9 0 C9 5.94 9 11.88 9 18 C6.03 18 3.06 18 0 18 C0 12.06 0 6.12 0 0 Z " fill="#000000" transform="translate(88,328)"/>
<path d="M0 0 C5.94 0 11.88 0 18 0 C18 2.97 18 5.94 18 9 C12.06 9 6.12 9 0 9 C0 6.03 0 3.06 0 0 Z " fill="#000000" transform="translate(62,248)"/>
<path d="M0 0 C5.94 0 11.88 0 18 0 C18 2.97 18 5.94 18 9 C12.06 9 6.12 9 0 9 C0 6.03 0 3.06 0 0 Z " fill="#FFFFFF" transform="translate(26,248)"/>
<path d="M0 0 C5.94 0 11.88 0 18 0 C18 2.97 18 5.94 18 9 C12.06 9 6.12 9 0 9 C0 6.03 0 3.06 0 0 Z " fill="#000000" transform="translate(97,222)"/>
<path d="M0 0 C5.94 0 11.88 0 18 0 C18 2.97 18 5.94 18 9 C12.06 9 6.12 9 0 9 C0 6.03 0 3.06 0 0 Z " fill="#FFFFFF" transform="translate(266,195)"/>
<path d="M0 0 C2.97 0 5.94 0 9 0 C9 5.94 9 11.88 9 18 C6.03 18 3.06 18 0 18 C0 12.06 0 6.12 0 0 Z " fill="#FFFFFF" transform="translate(222,177)"/>
<path d="M0 0 C5.94 0 11.88 0 18 0 C18 2.97 18 5.94 18 9 C12.06 9 6.12 9 0 9 C0 6.03 0 3.06 0 0 Z " fill="#FFFFFF" transform="translate(88,151)"/>
<path d="M0 0 C2.97 0 5.94 0 9 0 C9 5.94 9 11.88 9 18 C6.03 18 3.06 18 0 18 C0 12.06 0 6.12 0 0 Z " fill="#FFFFFF" transform="translate(115,124)"/>
<path d="M0 0 C5.94 0 11.88 0 18 0 C18 2.97 18 5.94 18 9 C12.06 9 6.12 9 0 9 C0 6.03 0 3.06 0 0 Z " fill="#000000" transform="translate(177,115)"/>
<path d="M0 0 C5.94 0 11.88 0 18 0 C18 2.97 18 5.94 18 9 C12.06 9 6.12 9 0 9 C0 6.03 0 3.06 0 0 Z " fill="#FFFFFF" transform="translate(62,115)"/>
<path d="M0 0 C5.94 0 11.88 0 18 0 C18 2.97 18 5.94 18 9 C12.06 9 6.12 9 0 9 C0 6.03 0 3.06 0 0 Z " fill="#FFFFFF" transform="translate(266,53)"/>
<path d="M0 0 C2.97 0 5.94 0 9 0 C9 5.61 9 11.22 9 17 C6.03 17 3.06 17 0 17 C0 11.39 0 5.78 0 0 Z " fill="#000000" transform="translate(302,160)"/>
<path d="M0 0 C2.97 0 5.94 0 9 0 C9 5.61 9 11.22 9 17 C6.03 17 3.06 17 0 17 C0 11.39 0 5.78 0 0 Z " fill="#000000" transform="translate(302,71)"/>
<path d="M0 0 C5.61 0 11.22 0 17 0 C17 2.97 17 5.94 17 9 C11.39 9 5.78 9 0 9 C0 6.03 0 3.06 0 0 Z " fill="#000000" transform="translate(231,44)"/>
<path d="M0 0 C5.61 0 11.22 0 17 0 C17 2.97 17 5.94 17 9 C11.39 9 5.78 9 0 9 C0 6.03 0 3.06 0 0 Z " fill="#000000" transform="translate(151,17)"/>
<path d="M0 0 C2.97 0 5.94 0 9 0 C9 2.97 9 5.94 9 9 C6.03 9 3.06 9 0 9 C0 6.03 0 3.06 0 0 Z " fill="#000000" transform="translate(97,373)"/>
<path d="M0 0 C2.97 0 5.94 0 9 0 C9 2.97 9 5.94 9 9 C6.03 9 3.06 9 0 9 C0 6.03 0 3.06 0 0 Z " fill="#FFFFFF" transform="translate(266,364)"/>
<path d="M0 0 C2.97 0 5.94 0 9 0 C9 2.97 9 5.94 9 9 C6.03 9 3.06 9 0 9 C0 6.03 0 3.06 0 0 Z " fill="#000000" transform="translate(373,355)"/>
<path d="M0 0 C2.97 0 5.94 0 9 0 C9 2.97 9 5.94 9 9 C6.03 9 3.06 9 0 9 C0 6.03 0 3.06 0 0 Z " fill="#FFFFFF" transform="translate(257,355)"/>
<path d="M0 0 C2.97 0 5.94 0 9 0 C9 2.97 9 5.94 9 9 C6.03 9 3.06 9 0 9 C0 6.03 0 3.06 0 0 Z " fill="#FFFFFF" transform="translate(195,355)"/>
<path d="M0 0 C2.97 0 5.94 0 9 0 C9 2.97 9 5.94 9 9 C6.03 9 3.06 9 0 9 C0 6.03 0 3.06 0 0 Z " fill="#000000" transform="translate(186,355)"/>
<path d="M0 0 C2.97 0 5.94 0 9 0 C9 2.97 9 5.94 9 9 C6.03 9 3.06 9 0 9 C0 6.03 0 3.06 0 0 Z " fill="#FFFFFF" transform="translate(177,355)"/>
<path d="M0 0 C2.97 0 5.94 0 9 0 C9 2.97 9 5.94 9 9 C6.03 9 3.06 9 0 9 C0 6.03 0 3.06 0 0 Z " fill="#000000" transform="translate(168,355)"/>
<path d="M0 0 C2.97 0 5.94 0 9 0 C9 2.97 9 5.94 9 9 C6.03 9 3.06 9 0 9 C0 6.03 0 3.06 0 0 Z " fill="#000000" transform="translate(355,346)"/>
<path d="M0 0 C2.97 0 5.94 0 9 0 C9 2.97 9 5.94 9 9 C6.03 9 3.06 9 0 9 C0 6.03 0 3.06 0 0 Z " fill="#000000" transform="translate(177,346)"/>
<path d="M0 0 C2.97 0 5.94 0 9 0 C9 2.97 9 5.94 9 9 C6.03 9 3.06 9 0 9 C0 6.03 0 3.06 0 0 Z " fill="#000000" transform="translate(355,328)"/>
<path d="M0 0 C2.97 0 5.94 0 9 0 C9 2.97 9 5.94 9 9 C6.03 9 3.06 9 0 9 C0 6.03 0 3.06 0 0 Z " fill="#000000" transform="translate(266,328)"/>
<path d="M0 0 C2.97 0 5.94 0 9 0 C9 2.97 9 5.94 9 9 C6.03 9 3.06 9 0 9 C0 6.03 0 3.06 0 0 Z " fill="#000000" transform="translate(186,328)"/>
<path d="M0 0 C2.97 0 5.94 0 9 0 C9 2.97 9 5.94 9 9 C6.03 9 3.06 9 0 9 C0 6.03 0 3.06 0 0 Z " fill="#FFFFFF" transform="translate(364,311)"/>
<path d="M0 0 C2.97 0 5.94 0 9 0 C9 2.97 9 5.94 9 9 C6.03 9 3.06 9 0 9 C0 6.03 0 3.06 0 0 Z " fill="#000000" transform="translate(355,311)"/>
<path d="M0 0 C2.97 0 5.94 0 9 0 C9 2.97 9 5.94 9 9 C6.03 9 3.06 9 0 9 C0 6.03 0 3.06 0 0 Z " fill="#000000" transform="translate(88,311)"/>
<path d="M0 0 C2.97 0 5.94 0 9 0 C9 2.97 9 5.94 9 9 C6.03 9 3.06 9 0 9 C0 6.03 0 3.06 0 0 Z " fill="#000000" transform="translate(71,302)"/>
<path d="M0 0 C2.97 0 5.94 0 9 0 C9 2.97 9 5.94 9 9 C6.03 9 3.06 9 0 9 C0 6.03 0 3.06 0 0 Z " fill="#000000" transform="translate(17,302)"/>
<path d="M0 0 C2.97 0 5.94 0 9 0 C9 2.97 9 5.94 9 9 C6.03 9 3.06 9 0 9 C0 6.03 0 3.06 0 0 Z " fill="#FFFFFF" transform="translate(124,284)"/>
<path d="M0 0 C2.97 0 5.94 0 9 0 C9 2.97 9 5.94 9 9 C6.03 9 3.06 9 0 9 C0 6.03 0 3.06 0 0 Z " fill="#000000" transform="translate(71,284)"/>
<path d="M0 0 C2.97 0 5.94 0 9 0 C9 2.97 9 5.94 9 9 C6.03 9 3.06 9 0 9 C0 6.03 0 3.06 0 0 Z " fill="#000000" transform="translate(17,284)"/>
<path d="M0 0 C2.97 0 5.94 0 9 0 C9 2.97 9 5.94 9 9 C6.03 9 3.06 9 0 9 C0 6.03 0 3.06 0 0 Z " fill="#000000" transform="translate(257,275)"/>
<path d="M0 0 C2.97 0 5.94 0 9 0 C9 2.97 9 5.94 9 9 C6.03 9 3.06 9 0 9 C0 6.03 0 3.06 0 0 Z " fill="#000000" transform="translate(62,275)"/>
<path d="M0 0 C2.97 0 5.94 0 9 0 C9 2.97 9 5.94 9 9 C6.03 9 3.06 9 0 9 C0 6.03 0 3.06 0 0 Z " fill="#000000" transform="translate(275,257)"/>
<path d="M0 0 C2.97 0 5.94 0 9 0 C9 2.97 9 5.94 9 9 C6.03 9 3.06 9 0 9 C0 6.03 0 3.06 0 0 Z " fill="#FFFFFF" transform="translate(213,257)"/>
<path d="M0 0 C2.97 0 5.94 0 9 0 C9 2.97 9 5.94 9 9 C6.03 9 3.06 9 0 9 C0 6.03 0 3.06 0 0 Z " fill="#000000" transform="translate(204,257)"/>
<path d="M0 0 C2.97 0 5.94 0 9 0 C9 2.97 9 5.94 9 9 C6.03 9 3.06 9 0 9 C0 6.03 0 3.06 0 0 Z " fill="#000000" transform="translate(133,257)"/>
<path d="M0 0 C2.97 0 5.94 0 9 0 C9 2.97 9 5.94 9 9 C6.03 9 3.06 9 0 9 C0 6.03 0 3.06 0 0 Z " fill="#FFFFFF" transform="translate(97,257)"/>
<path d="M0 0 C2.97 0 5.94 0 9 0 C9 2.97 9 5.94 9 9 C6.03 9 3.06 9 0 9 C0 6.03 0 3.06 0 0 Z " fill="#000000" transform="translate(284,248)"/>
<path d="M0 0 C2.97 0 5.94 0 9 0 C9 2.97 9 5.94 9 9 C6.03 9 3.06 9 0 9 C0 6.03 0 3.06 0 0 Z " fill="#000000" transform="translate(355,231)"/>
<path d="M0 0 C2.97 0 5.94 0 9 0 C9 2.97 9 5.94 9 9 C6.03 9 3.06 9 0 9 C0 6.03 0 3.06 0 0 Z " fill="#000000" transform="translate(346,222)"/>
<path d="M0 0 C2.97 0 5.94 0 9 0 C9 2.97 9 5.94 9 9 C6.03 9 3.06 9 0 9 C0 6.03 0 3.06 0 0 Z " fill="#FFFFFF" transform="translate(346,213)"/>
<path d="M0 0 C2.97 0 5.94 0 9 0 C9 2.97 9 5.94 9 9 C6.03 9 3.06 9 0 9 C0 6.03 0 3.06 0 0 Z " fill="#FFFFFF" transform="translate(231,213)"/>
<path d="M0 0 C2.97 0 5.94 0 9 0 C9 2.97 9 5.94 9 9 C6.03 9 3.06 9 0 9 C0 6.03 0 3.06 0 0 Z " fill="#FFFFFF" transform="translate(151,213)"/>
<path d="M0 0 C2.97 0 5.94 0 9 0 C9 2.97 9 5.94 9 9 C6.03 9 3.06 9 0 9 C0 6.03 0 3.06 0 0 Z " fill="#000000" transform="translate(346,204)"/>
<path d="M0 0 C2.97 0 5.94 0 9 0 C9 2.97 9 5.94 9 9 C6.03 9 3.06 9 0 9 C0 6.03 0 3.06 0 0 Z " fill="#FFFFFF" transform="translate(337,204)"/>
<path d="M0 0 C2.97 0 5.94 0 9 0 C9 2.97 9 5.94 9 9 C6.03 9 3.06 9 0 9 C0 6.03 0 3.06 0 0 Z " fill="#000000" transform="translate(248,204)"/>
<path d="M0 0 C2.97 0 5.94 0 9 0 C9 2.97 9 5.94 9 9 C6.03 9 3.06 9 0 9 C0 6.03 0 3.06 0 0 Z " fill="#000000" transform="translate(151,204)"/>
<path d="M0 0 C2.97 0 5.94 0 9 0 C9 2.97 9 5.94 9 9 C6.03 9 3.06 9 0 9 C0 6.03 0 3.06 0 0 Z " fill="#FFFFFF" transform="translate(142,204)"/>
<path d="M0 0 C2.97 0 5.94 0 9 0 C9 2.97 9 5.94 9 9 C6.03 9 3.06 9 0 9 C0 6.03 0 3.06 0 0 Z " fill="#000000" transform="translate(62,204)"/>
<path d="M0 0 C2.97 0 5.94 0 9 0 C9 2.97 9 5.94 9 9 C6.03 9 3.06 9 0 9 C0 6.03 0 3.06 0 0 Z " fill="#000000" transform="translate(257,195)"/>
<path d="M0 0 C2.97 0 5.94 0 9 0 C9 2.97 9 5.94 9 9 C6.03 9 3.06 9 0 9 C0 6.03 0 3.06 0 0 Z " fill="#FFFFFF" transform="translate(248,195)"/>
<path d="M0 0 C2.97 0 5.94 0 9 0 C9 2.97 9 5.94 9 9 C6.03 9 3.06 9 0 9 C0 6.03 0 3.06 0 0 Z " fill="#FFFFFF" transform="translate(195,195)"/>
<path d="M0 0 C2.97 0 5.94 0 9 0 C9 2.97 9 5.94 9 9 C6.03 9 3.06 9 0 9 C0 6.03 0 3.06 0 0 Z " fill="#FFFFFF" transform="translate(151,195)"/>
<path d="M0 0 C2.97 0 5.94 0 9 0 C9 2.97 9 5.94 9 9 C6.03 9 3.06 9 0 9 C0 6.03 0 3.06 0 0 Z " fill="#000000" transform="translate(71,195)"/>
<path d="M0 0 C2.97 0 5.94 0 9 0 C9 2.97 9 5.94 9 9 C6.03 9 3.06 9 0 9 C0 6.03 0 3.06 0 0 Z " fill="#000000" transform="translate(53,195)"/>
<path d="M0 0 C2.97 0 5.94 0 9 0 C9 2.97 9 5.94 9 9 C6.03 9 3.06 9 0 9 C0 6.03 0 3.06 0 0 Z " fill="#000000" transform="translate(346,186)"/>
<path d="M0 0 C2.97 0 5.94 0 9 0 C9 2.97 9 5.94 9 9 C6.03 9 3.06 9 0 9 C0 6.03 0 3.06 0 0 Z " fill="#FFFFFF" transform="translate(337,186)"/>
<path d="M0 0 C2.97 0 5.94 0 9 0 C9 2.97 9 5.94 9 9 C6.03 9 3.06 9 0 9 C0 6.03 0 3.06 0 0 Z " fill="#FFFFFF" transform="translate(311,186)"/>
<path d="M0 0 C2.97 0 5.94 0 9 0 C9 2.97 9 5.94 9 9 C6.03 9 3.06 9 0 9 C0 6.03 0 3.06 0 0 Z " fill="#FFFFFF" transform="translate(257,186)"/>
<path d="M0 0 C2.97 0 5.94 0 9 0 C9 2.97 9 5.94 9 9 C6.03 9 3.06 9 0 9 C0 6.03 0 3.06 0 0 Z " fill="#000000" transform="translate(337,177)"/>
<path d="M0 0 C2.97 0 5.94 0 9 0 C9 2.97 9 5.94 9 9 C6.03 9 3.06 9 0 9 C0 6.03 0 3.06 0 0 Z " fill="#000000" transform="translate(311,177)"/>
<path d="M0 0 C2.97 0 5.94 0 9 0 C9 2.97 9 5.94 9 9 C6.03 9 3.06 9 0 9 C0 6.03 0 3.06 0 0 Z " fill="#FFFFFF" transform="translate(302,177)"/>
<path d="M0 0 C2.97 0 5.94 0 9 0 C9 2.97 9 5.94 9 9 C6.03 9 3.06 9 0 9 C0 6.03 0 3.06 0 0 Z " fill="#FFFFFF" transform="translate(275,177)"/>
<path d="M0 0 C2.97 0 5.94 0 9 0 C9 2.97 9 5.94 9 9 C6.03 9 3.06 9 0 9 C0 6.03 0 3.06 0 0 Z " fill="#FFFFFF" transform="translate(177,177)"/>
<path d="M0 0 C2.97 0 5.94 0 9 0 C9 2.97 9 5.94 9 9 C6.03 9 3.06 9 0 9 C0 6.03 0 3.06 0 0 Z " fill="#000000" transform="translate(124,168)"/>
<path d="M0 0 C2.97 0 5.94 0 9 0 C9 2.97 9 5.94 9 9 C6.03 9 3.06 9 0 9 C0 6.03 0 3.06 0 0 Z " fill="#FFFFFF" transform="translate(71,168)"/>
<path d="M0 0 C2.97 0 5.94 0 9 0 C9 2.97 9 5.94 9 9 C6.03 9 3.06 9 0 9 C0 6.03 0 3.06 0 0 Z " fill="#000000" transform="translate(44,168)"/>
<path d="M0 0 C2.97 0 5.94 0 9 0 C9 2.97 9 5.94 9 9 C6.03 9 3.06 9 0 9 C0 6.03 0 3.06 0 0 Z " fill="#000000" transform="translate(293,151)"/>
<path d="M0 0 C2.97 0 5.94 0 9 0 C9 2.97 9 5.94 9 9 C6.03 9 3.06 9 0 9 C0 6.03 0 3.06 0 0 Z " fill="#FFFFFF" transform="translate(257,151)"/>
<path d="M0 0 C2.97 0 5.94 0 9 0 C9 2.97 9 5.94 9 9 C6.03 9 3.06 9 0 9 C0 6.03 0 3.06 0 0 Z " fill="#FFFFFF" transform="translate(168,151)"/>
<path d="M0 0 C2.97 0 5.94 0 9 0 C9 2.97 9 5.94 9 9 C6.03 9 3.06 9 0 9 C0 6.03 0 3.06 0 0 Z " fill="#FFFFFF" transform="translate(177,142)"/>
<path d="M0 0 C2.97 0 5.94 0 9 0 C9 2.97 9 5.94 9 9 C6.03 9 3.06 9 0 9 C0 6.03 0 3.06 0 0 Z " fill="#FFFFFF" transform="translate(106,142)"/>
<path d="M0 0 C2.97 0 5.94 0 9 0 C9 2.97 9 5.94 9 9 C6.03 9 3.06 9 0 9 C0 6.03 0 3.06 0 0 Z " fill="#000000" transform="translate(177,133)"/>
<path d="M0 0 C2.97 0 5.94 0 9 0 C9 2.97 9 5.94 9 9 C6.03 9 3.06 9 0 9 C0 6.03 0 3.06 0 0 Z " fill="#FFFFFF" transform="translate(88,133)"/>
<path d="M0 0 C2.97 0 5.94 0 9 0 C9 2.97 9 5.94 9 9 C6.03 9 3.06 9 0 9 C0 6.03 0 3.06 0 0 Z " fill="#FFFFFF" transform="translate(284,124)"/>
<path d="M0 0 C2.97 0 5.94 0 9 0 C9 2.97 9 5.94 9 9 C6.03 9 3.06 9 0 9 C0 6.03 0 3.06 0 0 Z " fill="#000000" transform="translate(231,124)"/>
<path d="M0 0 C2.97 0 5.94 0 9 0 C9 2.97 9 5.94 9 9 C6.03 9 3.06 9 0 9 C0 6.03 0 3.06 0 0 Z " fill="#000000" transform="translate(204,124)"/>
<path d="M0 0 C2.97 0 5.94 0 9 0 C9 2.97 9 5.94 9 9 C6.03 9 3.06 9 0 9 C0 6.03 0 3.06 0 0 Z " fill="#FFFFFF" transform="translate(97,124)"/>
<path d="M0 0 C2.97 0 5.94 0 9 0 C9 2.97 9 5.94 9 9 C6.03 9 3.06 9 0 9 C0 6.03 0 3.06 0 0 Z " fill="#000000" transform="translate(115,115)"/>
<path d="M0 0 C2.97 0 5.94 0 9 0 C9 2.97 9 5.94 9 9 C6.03 9 3.06 9 0 9 C0 6.03 0 3.06 0 0 Z " fill="#000000" transform="translate(97,115)"/>
<path d="M0 0 C2.97 0 5.94 0 9 0 C9 2.97 9 5.94 9 9 C6.03 9 3.06 9 0 9 C0 6.03 0 3.06 0 0 Z " fill="#FFFFFF" transform="translate(364,106)"/>
<path d="M0 0 C2.97 0 5.94 0 9 0 C9 2.97 9 5.94 9 9 C6.03 9 3.06 9 0 9 C0 6.03 0 3.06 0 0 Z " fill="#000000" transform="translate(168,106)"/>
<path d="M0 0 C2.97 0 5.94 0 9 0 C9 2.97 9 5.94 9 9 C6.03 9 3.06 9 0 9 C0 6.03 0 3.06 0 0 Z " fill="#FFFFFF" transform="translate(275,97)"/>
<path d="M0 0 C2.97 0 5.94 0 9 0 C9 2.97 9 5.94 9 9 C6.03 9 3.06 9 0 9 C0 6.03 0 3.06 0 0 Z " fill="#FFFFFF" transform="translate(222,97)"/>
<path d="M0 0 C2.97 0 5.94 0 9 0 C9 2.97 9 5.94 9 9 C6.03 9 3.06 9 0 9 C0 6.03 0 3.06 0 0 Z " fill="#FFFFFF" transform="translate(71,97)"/>
<path d="M0 0 C2.97 0 5.94 0 9 0 C9 2.97 9 5.94 9 9 C6.03 9 3.06 9 0 9 C0 6.03 0 3.06 0 0 Z " fill="#000000" transform="translate(35,88)"/>
<path d="M0 0 C2.97 0 5.94 0 9 0 C9 2.97 9 5.94 9 9 C6.03 9 3.06 9 0 9 C0 6.03 0 3.06 0 0 Z " fill="#FFFFFF" transform="translate(275,71)"/>
<path d="M0 0 C2.97 0 5.94 0 9 0 C9 2.97 9 5.94 9 9 C6.03 9 3.06 9 0 9 C0 6.03 0 3.06 0 0 Z " fill="#FFFFFF" transform="translate(257,71)"/>
<path d="M0 0 C2.97 0 5.94 0 9 0 C9 2.97 9 5.94 9 9 C6.03 9 3.06 9 0 9 C0 6.03 0 3.06 0 0 Z " fill="#000000" transform="translate(231,71)"/>
<path d="M0 0 C2.97 0 5.94 0 9 0 C9 2.97 9 5.94 9 9 C6.03 9 3.06 9 0 9 C0 6.03 0 3.06 0 0 Z " fill="#FFFFFF" transform="translate(133,71)"/>
<path d="M0 0 C2.97 0 5.94 0 9 0 C9 2.97 9 5.94 9 9 C6.03 9 3.06 9 0 9 C0 6.03 0 3.06 0 0 Z " fill="#000000" transform="translate(106,71)"/>
<path d="M0 0 C2.97 0 5.94 0 9 0 C9 2.97 9 5.94 9 9 C6.03 9 3.06 9 0 9 C0 6.03 0 3.06 0 0 Z " fill="#000000" transform="translate(88,71)"/>
<path d="M0 0 C2.97 0 5.94 0 9 0 C9 2.97 9 5.94 9 9 C6.03 9 3.06 9 0 9 C0 6.03 0 3.06 0 0 Z " fill="#FFFFFF" transform="translate(284,62)"/>
<path d="M0 0 C2.97 0 5.94 0 9 0 C9 2.97 9 5.94 9 9 C6.03 9 3.06 9 0 9 C0 6.03 0 3.06 0 0 Z " fill="#000000" transform="translate(222,53)"/>
<path d="M0 0 C2.97 0 5.94 0 9 0 C9 2.97 9 5.94 9 9 C6.03 9 3.06 9 0 9 C0 6.03 0 3.06 0 0 Z " fill="#000000" transform="translate(302,26)"/>
<path d="M0 0 C2.97 0 5.94 0 9 0 C9 2.97 9 5.94 9 9 C6.03 9 3.06 9 0 9 C0 6.03 0 3.06 0 0 Z " fill="#000000" transform="translate(248,17)"/>
<path d="M0 0 C2.97 0 5.94 0 9 0 C9 2.97 9 5.94 9 9 C6.03 9 3.06 9 0 9 C0 6.03 0 3.06 0 0 Z " fill="#000000" transform="translate(177,17)"/>
<path d="M0 0 C2.97 0 5.94 0 9 0 C9 2.97 9 5.94 9 9 C6.03 9 3.06 9 0 9 C0 6.03 0 3.06 0 0 Z " fill="#000000" transform="translate(88,17)"/>
<path d="M0 0 C2.64 0 5.28 0 8 0 C8 2.97 8 5.94 8 9 C5.36 9 2.72 9 0 9 C0 6.03 0 3.06 0 0 Z " fill="#000000" transform="translate(240,373)"/>
<path d="M0 0 C2.97 0 5.94 0 9 0 C9 2.64 9 5.28 9 8 C6.03 8 3.06 8 0 8 C0 5.36 0 2.72 0 0 Z " fill="#000000" transform="translate(275,320)"/>
<path d="M0 0 C2.64 0 5.28 0 8 0 C8 2.97 8 5.94 8 9 C5.36 9 2.72 9 0 9 C0 6.03 0 3.06 0 0 Z " fill="#FFFFFF" transform="translate(240,284)"/>
<path d="M0 0 C2.64 0 5.28 0 8 0 C8 2.97 8 5.94 8 9 C5.36 9 2.72 9 0 9 C0 6.03 0 3.06 0 0 Z " fill="#000000" transform="translate(320,266)"/>
<path d="M0 0 C2.64 0 5.28 0 8 0 C8 2.97 8 5.94 8 9 C5.36 9 2.72 9 0 9 C0 6.03 0 3.06 0 0 Z " fill="#FFFFFF" transform="translate(240,248)"/>
<path d="M0 0 C2.64 0 5.28 0 8 0 C8 2.97 8 5.94 8 9 C5.36 9 2.72 9 0 9 C0 6.03 0 3.06 0 0 Z " fill="#FFFFFF" transform="translate(320,213)"/>
<path d="M0 0 C2.64 0 5.28 0 8 0 C8 2.97 8 5.94 8 9 C5.36 9 2.72 9 0 9 C0 6.03 0 3.06 0 0 Z " fill="#FFFFFF" transform="translate(240,204)"/>
<path d="M0 0 C2.64 0 5.28 0 8 0 C8 2.97 8 5.94 8 9 C5.36 9 2.72 9 0 9 C0 6.03 0 3.06 0 0 Z " fill="#FFFFFF" transform="translate(160,204)"/>
<path d="M0 0 C2.64 0 5.28 0 8 0 C8 2.97 8 5.94 8 9 C5.36 9 2.72 9 0 9 C0 6.03 0 3.06 0 0 Z " fill="#000000" transform="translate(80,186)"/>
<path d="M0 0 C2.64 0 5.28 0 8 0 C8 2.97 8 5.94 8 9 C5.36 9 2.72 9 0 9 C0 6.03 0 3.06 0 0 Z " fill="#FFFFFF" transform="translate(80,177)"/>
<path d="M0 0 C2.97 0 5.94 0 9 0 C9 2.64 9 5.28 9 8 C6.03 8 3.06 8 0 8 C0 5.36 0 2.72 0 0 Z " fill="#000000" transform="translate(346,160)"/>
<path d="M0 0 C2.97 0 5.94 0 9 0 C9 2.64 9 5.28 9 8 C6.03 8 3.06 8 0 8 C0 5.36 0 2.72 0 0 Z " fill="#FFFFFF" transform="translate(177,160)"/>
<path d="M0 0 C2.97 0 5.94 0 9 0 C9 2.64 9 5.28 9 8 C6.03 8 3.06 8 0 8 C0 5.36 0 2.72 0 0 Z " fill="#000000" transform="translate(151,160)"/>
<path d="M0 0 C2.97 0 5.94 0 9 0 C9 2.64 9 5.28 9 8 C6.03 8 3.06 8 0 8 C0 5.36 0 2.72 0 0 Z " fill="#FFFFFF" transform="translate(106,160)"/>
<path d="M0 0 C2.97 0 5.94 0 9 0 C9 2.64 9 5.28 9 8 C6.03 8 3.06 8 0 8 C0 5.36 0 2.72 0 0 Z " fill="#000000" transform="translate(17,160)"/>
<path d="M0 0 C2.97 0 5.94 0 9 0 C9 2.64 9 5.28 9 8 C6.03 8 3.06 8 0 8 C0 5.36 0 2.72 0 0 Z " fill="#FFFFFF" transform="translate(266,80)"/>
<path d="M0 0 C2.97 0 5.94 0 9 0 C9 2.64 9 5.28 9 8 C6.03 8 3.06 8 0 8 C0 5.36 0 2.72 0 0 Z " fill="#000000" transform="translate(204,80)"/>
<path d="M0 0 C2.97 0 5.94 0 9 0 C9 2.64 9 5.28 9 8 C6.03 8 3.06 8 0 8 C0 5.36 0 2.72 0 0 Z " fill="#000000" transform="translate(97,80)"/>
<path d="M0 0 C2.64 0 5.28 0 8 0 C8 2.64 8 5.28 8 8 C5.36 8 2.72 8 0 8 C0 5.36 0 2.72 0 0 Z " fill="#000000" transform="translate(320,320)"/>
<path d="M0 0 C2.64 0 5.28 0 8 0 C8 2.64 8 5.28 8 8 C5.36 8 2.72 8 0 8 C0 5.36 0 2.72 0 0 Z " fill="#FFFFFF" transform="translate(240,160)"/>
</svg>
