<?xml version="1.0" encoding="UTF-8"?>
<svg version="1.1" xmlns="http://www.w3.org/2000/svg" width="500" height="500">
<path d="M0 0 C165 0 330 0 500 0 C500 165 500 330 500 500 C335 500 170 500 0 500 C0 335 0 170 0 0 Z " fill="#FFFFFF" transform="translate(0,0)"/>
<path d="M0 0 C3.63 0 7.26 0 11 0 C11 10.89 11 21.78 11 33 C25.85 33 40.7 33 56 33 C56 29.37 56 25.74 56 22 C44.78 22 33.56 22 22 22 C22 14.74 22 7.48 22 0 C29.26 0 36.52 0 44 0 C44 3.63 44 7.26 44 11 C51.59 11 59.18 11 67 11 C67 7.37 67 3.74 67 0 C70.63 0 74.26 0 78 0 C78 14.52 78 29.04 78 44 C81.63 44 85.26 44 89 44 C89 51.26 89 58.52 89 66 C85.37 66 81.74 66 78 66 C78 69.63 78 73.26 78 77 C74.37 77 70.74 77 67 77 C67 84.59 67 92.18 67 100 C70.63 100 74.26 100 78 100 C78 103.63 78 107.26 78 111 C74.37 111 70.74 111 67 111 C67 114.63 67 118.26 67 122 C63.37 122 59.74 122 56 122 C56 111.11 56 100.22 56 89 C52.04 89 48.08 89 44 89 C44 96.26 44 103.52 44 111 C40.37 111 36.74 111 33 111 C33 114.63 33 118.26 33 122 C25.74 122 18.48 122 11 122 C11 125.63 11 129.26 11 133 C7.37 133 3.74 133 0 133 C0 136.63 0 140.26 0 144 C-3.63 144 -7.26 144 -11 144 C-11 147.63 -11 151.26 -11 155 C-14.63 155 -18.26 155 -22 155 C-22 158.63 -22 162.26 -22 166 C-33.22 166 -44.44 166 -56 166 C-56 173.59 -56 181.18 -56 189 C-59.63 189 -63.26 189 -67 189 C-67 185.04 -67 181.08 -67 177 C-77.89 177 -88.78 177 -100 177 C-100 169.74 -100 162.48 -100 155 C-96.37 155 -92.74 155 -89 155 C-89 158.63 -89 162.26 -89 166 C-85.37 166 -81.74 166 -78 166 C-78 155.11 -78 144.22 -78 133 C-81.63 133 -85.26 133 -89 133 C-89 136.63 -89 140.26 -89 144 C-92.63 144 -96.26 144 -100 144 C-100 140.37 -100 136.74 -100 133 C-103.63 133 -107.26 133 -111 133 C-111 125.74 -111 118.48 -111 111 C-114.63 111 -118.26 111 -122 111 C-122 107.37 -122 103.74 -122 100 C-118.37 100 -114.74 100 -111 100 C-111 96.37 -111 92.74 -111 89 C-114.63 89 -118.26 89 -122 89 C-122 85.04 -122 81.08 -122 77 C-133.22 77 -144.44 77 -156 77 C-156 80.96 -156 84.92 -156 89 C-148.41 89 -140.82 89 -133 89 C-133 92.63 -133 96.26 -133 100 C-140.59 100 -148.18 100 -156 100 C-156 103.63 -156 107.26 -156 111 C-152.04 111 -148.08 111 -144 111 C-144 114.63 -144 118.26 -144 122 C-147.96 122 -151.92 122 -156 122 C-156 125.63 -156 129.26 -156 133 C-163.26 133 -170.52 133 -178 133 C-178 140.26 -178 147.52 -178 155 C-181.63 155 -185.26 155 -189 155 C-189 162.26 -189 169.52 -189 177 C-185.37 177 -181.74 177 -178 177 C-178 180.96 -178 184.92 -178 189 C-185.26 189 -192.52 189 -200 189 C-200 192.63 -200 196.26 -200 200 C-207.26 200 -214.52 200 -222 200 C-222 188.78 -222 177.56 -222 166 C-218.37 166 -214.74 166 -211 166 C-211 162.37 -211 158.74 -211 155 C-214.63 155 -218.26 155 -222 155 C-222 151.37 -222 147.74 -222 144 C-211.11 144 -200.22 144 -189 144 C-189 140.37 -189 136.74 -189 133 C-192.63 133 -196.26 133 -200 133 C-200 129.37 -200 125.74 -200 122 C-196.37 122 -192.74 122 -189 122 C-189 118.37 -189 114.74 -189 111 C-185.37 111 -181.74 111 -178 111 C-178 114.63 -178 118.26 -178 122 C-174.37 122 -170.74 122 -167 122 C-167 111.11 -167 100.22 -167 89 C-174.26 89 -181.52 89 -189 89 C-189 81.41 -189 73.82 -189 66 C-181.74 66 -174.48 66 -167 66 C-167 62.37 -167 58.74 -167 55 C-170.63 55 -174.26 55 -178 55 C-178 51.37 -178 47.74 -178 44 C-181.63 44 -185.26 44 -189 44 C-189 40.37 -189 36.74 -189 33 C-181.74 33 -174.48 33 -167 33 C-167 36.63 -167 40.26 -167 44 C-148.52 44 -130.04 44 -111 44 C-111 36.74 -111 29.48 -111 22 C-107.37 22 -103.74 22 -100 22 C-100 25.63 -100 29.26 -100 33 C-96.37 33 -92.74 33 -89 33 C-89 25.74 -89 18.48 -89 11 C-85.37 11 -81.74 11 -78 11 C-78 14.63 -78 18.26 -78 22 C-70.74 22 -63.48 22 -56 22 C-56 25.63 -56 29.26 -56 33 C-52.04 33 -48.08 33 -44 33 C-44 29.37 -44 25.74 -44 22 C-29.48 22 -14.96 22 0 22 C0 14.74 0 7.48 0 0 Z " fill="#FFFFFF" transform="translate(244,111)"/>
<path d="M0 0 C11.22 0 22.44 0 34 0 C34 3.96 34 7.92 34 12 C37.63 12 41.26 12 45 12 C45 15.63 45 19.26 45 23 C41.37 23 37.74 23 34 23 C34 26.63 34 30.26 34 34 C37.63 34 41.26 34 45 34 C45 41.26 45 48.52 45 56 C48.63 56 52.26 56 56 56 C56 59.63 56 63.26 56 67 C59.63 67 63.26 67 67 67 C67 63.37 67 59.74 67 56 C70.63 56 74.26 56 78 56 C78 66.89 78 77.78 78 89 C74.37 89 70.74 89 67 89 C67 85.37 67 81.74 67 78 C63.37 78 59.74 78 56 78 C56 85.26 56 92.52 56 100 C66.89 100 77.78 100 89 100 C89 103.96 89 107.92 89 112 C92.63 112 96.26 112 100 112 C100 104.41 100 96.82 100 89 C111.22 89 122.44 89 134 89 C134 85.37 134 81.74 134 78 C137.63 78 141.26 78 145 78 C145 74.37 145 70.74 145 67 C148.63 67 152.26 67 156 67 C156 63.37 156 59.74 156 56 C159.63 56 163.26 56 167 56 C167 59.63 167 63.26 167 67 C170.63 67 174.26 67 178 67 C178 74.26 178 81.52 178 89 C174.37 89 170.74 89 167 89 C167 92.63 167 96.26 167 100 C156.11 100 145.22 100 134 100 C134 103.96 134 107.92 134 112 C137.63 112 141.26 112 145 112 C145 119.26 145 126.52 145 134 C152.26 134 159.52 134 167 134 C167 137.63 167 141.26 167 145 C163.37 145 159.74 145 156 145 C156 148.63 156 152.26 156 156 C163.26 156 170.52 156 178 156 C178 170.52 178 185.04 178 200 C181.63 200 185.26 200 189 200 C189 203.96 189 207.92 189 212 C185.37 212 181.74 212 178 212 C178 215.63 178 219.26 178 223 C174.37 223 170.74 223 167 223 C167 219.37 167 215.74 167 212 C163.37 212 159.74 212 156 212 C156 208.04 156 204.08 156 200 C159.63 200 163.26 200 167 200 C167 196.37 167 192.74 167 189 C159.74 189 152.48 189 145 189 C145 185.37 145 181.74 145 178 C141.37 178 137.74 178 134 178 C134 181.63 134 185.26 134 189 C130.37 189 126.74 189 123 189 C123 192.63 123 196.26 123 200 C119.37 200 115.74 200 112 200 C112 192.74 112 185.48 112 178 C115.63 178 119.26 178 123 178 C123 174.37 123 170.74 123 167 C126.63 167 130.26 167 134 167 C134 163.37 134 159.74 134 156 C137.63 156 141.26 156 145 156 C145 152.37 145 148.74 145 145 C141.37 145 137.74 145 134 145 C134 141.37 134 137.74 134 134 C126.74 134 119.48 134 112 134 C112 130.37 112 126.74 112 123 C108.04 123 104.08 123 100 123 C100 126.63 100 130.26 100 134 C92.74 134 85.48 134 78 134 C78 141.26 78 148.52 78 156 C74.37 156 70.74 156 67 156 C67 152.37 67 148.74 67 145 C59.74 145 52.48 145 45 145 C45 152.26 45 159.52 45 167 C41.37 167 37.74 167 34 167 C34 163.37 34 159.74 34 156 C30.37 156 26.74 156 23 156 C23 152.37 23 148.74 23 145 C15.41 145 7.82 145 0 145 C0 141.37 0 137.74 0 134 C3.96 134 7.92 134 12 134 C12 130.37 12 126.74 12 123 C4.41 123 -3.18 123 -11 123 C-11 119.37 -11 115.74 -11 112 C-14.63 112 -18.26 112 -22 112 C-22 108.04 -22 104.08 -22 100 C-25.63 100 -29.26 100 -33 100 C-33 92.74 -33 85.48 -33 78 C-29.37 78 -25.74 78 -22 78 C-22 70.74 -22 63.48 -22 56 C-14.74 56 -7.48 56 0 56 C0 52.37 0 48.74 0 45 C3.96 45 7.92 45 12 45 C12 41.37 12 37.74 12 34 C8.04 34 4.08 34 0 34 C0 30.37 0 26.74 0 23 C7.59 23 15.18 23 23 23 C23 19.37 23 15.74 23 12 C15.41 12 7.82 12 0 12 C0 8.04 0 4.08 0 0 Z " fill="#FFFFFF" transform="translate(88,188)"/>
<path d="M0 0 C3.96 0 7.92 0 12 0 C12 3.63 12 7.26 12 11 C19.26 11 26.52 11 34 11 C34 14.63 34 18.26 34 22 C37.63 22 41.26 22 45 22 C45 25.63 45 29.26 45 33 C41.37 33 37.74 33 34 33 C34 36.63 34 40.26 34 44 C30.37 44 26.74 44 23 44 C23 47.63 23 51.26 23 55 C19.37 55 15.74 55 12 55 C12 62.26 12 69.52 12 77 C15.63 77 19.26 77 23 77 C23 73.37 23 69.74 23 66 C26.63 66 30.26 66 34 66 C34 62.37 34 58.74 34 55 C37.63 55 41.26 55 45 55 C45 58.63 45 62.26 45 66 C52.26 66 59.52 66 67 66 C67 69.63 67 73.26 67 77 C63.37 77 59.74 77 56 77 C56 80.96 56 84.92 56 89 C59.63 89 63.26 89 67 89 C67 92.63 67 96.26 67 100 C70.63 100 74.26 100 78 100 C78 103.63 78 107.26 78 111 C74.37 111 70.74 111 67 111 C67 118.26 67 125.52 67 133 C81.85 133 96.7 133 112 133 C112 140.26 112 147.52 112 155 C108.04 155 104.08 155 100 155 C100 158.63 100 162.26 100 166 C96.37 166 92.74 166 89 166 C89 162.37 89 158.74 89 155 C74.48 155 59.96 155 45 155 C45 158.63 45 162.26 45 166 C37.74 166 30.48 166 23 166 C23 162.37 23 158.74 23 155 C19.37 155 15.74 155 12 155 C12 151.37 12 147.74 12 144 C8.04 144 4.08 144 0 144 C0 151.26 0 158.52 0 166 C-3.63 166 -7.26 166 -11 166 C-11 158.74 -11 151.48 -11 144 C-14.63 144 -18.26 144 -22 144 C-22 136.74 -22 129.48 -22 122 C-25.63 122 -29.26 122 -33 122 C-33 114.74 -33 107.48 -33 100 C-29.37 100 -25.74 100 -22 100 C-22 92.41 -22 84.82 -22 77 C-29.26 77 -36.52 77 -44 77 C-44 73.37 -44 69.74 -44 66 C-47.63 66 -51.26 66 -55 66 C-55 73.59 -55 81.18 -55 89 C-51.37 89 -47.74 89 -44 89 C-44 96.26 -44 103.52 -44 111 C-51.26 111 -58.52 111 -66 111 C-66 114.63 -66 118.26 -66 122 C-69.63 122 -73.26 122 -77 122 C-77 114.74 -77 107.48 -77 100 C-73.37 100 -69.74 100 -66 100 C-66 96.37 -66 92.74 -66 89 C-69.63 89 -73.26 89 -77 89 C-77 70.52 -77 52.04 -77 33 C-73.37 33 -69.74 33 -66 33 C-66 36.63 -66 40.26 -66 44 C-62.37 44 -58.74 44 -55 44 C-55 36.74 -55 29.48 -55 22 C-47.74 22 -40.48 22 -33 22 C-33 25.63 -33 29.26 -33 33 C-29.37 33 -25.74 33 -22 33 C-22 25.74 -22 18.48 -22 11 C-14.74 11 -7.48 11 0 11 C0 7.37 0 3.74 0 0 Z " fill="#000000" transform="translate(188,311)"/>
<path d="M0 0 C10.89 0 21.78 0 33 0 C33 3.63 33 7.26 33 11 C36.96 11 40.92 11 45 11 C45 14.63 45 18.26 45 22 C48.63 22 52.26 22 56 22 C56 25.63 56 29.26 56 33 C59.63 33 63.26 33 67 33 C67 40.59 67 48.18 67 56 C70.63 56 74.26 56 78 56 C78 48.41 78 40.82 78 33 C85.26 33 92.52 33 100 33 C100 36.63 100 40.26 100 44 C107.26 44 114.52 44 122 44 C122 47.96 122 51.92 122 56 C118.37 56 114.74 56 111 56 C111 66.89 111 77.78 111 89 C103.74 89 96.48 89 89 89 C89 99.89 89 110.78 89 122 C92.63 122 96.26 122 100 122 C100 125.63 100 129.26 100 133 C92.74 133 85.48 133 78 133 C78 136.63 78 140.26 78 144 C67.11 144 56.22 144 45 144 C45 147.96 45 151.92 45 156 C48.63 156 52.26 156 56 156 C56 159.63 56 163.26 56 167 C59.63 167 63.26 167 67 167 C67 170.63 67 174.26 67 178 C63.37 178 59.74 178 56 178 C56 181.63 56 185.26 56 189 C48.41 189 40.82 189 33 189 C33 185.37 33 181.74 33 178 C29.37 178 25.74 178 22 178 C22 174.37 22 170.74 22 167 C18.37 167 14.74 167 11 167 C11 163.37 11 159.74 11 156 C14.63 156 18.26 156 22 156 C22 152.04 22 148.08 22 144 C18.37 144 14.74 144 11 144 C11 129.48 11 114.96 11 100 C3.74 100 -3.52 100 -11 100 C-11 96.37 -11 92.74 -11 89 C-7.37 89 -3.74 89 0 89 C0 85.37 0 81.74 0 78 C-7.26 78 -14.52 78 -22 78 C-22 70.74 -22 63.48 -22 56 C-25.63 56 -29.26 56 -33 56 C-33 52.04 -33 48.08 -33 44 C-22.11 44 -11.22 44 0 44 C0 40.37 0 36.74 0 33 C3.63 33 7.26 33 11 33 C11 25.74 11 18.48 11 11 C7.37 11 3.74 11 0 11 C0 7.37 0 3.74 0 0 Z " fill="#000000" transform="translate(255,244)"/>
<path d="M0 0 C3.63 0 7.26 0 11 0 C11 7.26 11 14.52 11 22 C18.59 22 26.18 22 34 22 C34 29.59 34 37.18 34 45 C37.63 45 41.26 45 45 45 C45 48.63 45 52.26 45 56 C41.37 56 37.74 56 34 56 C34 59.63 34 63.26 34 67 C30.37 67 26.74 67 23 67 C23 56.11 23 45.22 23 34 C19.04 34 15.08 34 11 34 C11 41.26 11 48.52 11 56 C7.37 56 3.74 56 0 56 C0 59.63 0 63.26 0 67 C-7.26 67 -14.52 67 -22 67 C-22 70.63 -22 74.26 -22 78 C-25.63 78 -29.26 78 -33 78 C-33 81.63 -33 85.26 -33 89 C-36.63 89 -40.26 89 -44 89 C-44 92.63 -44 96.26 -44 100 C-47.63 100 -51.26 100 -55 100 C-55 103.63 -55 107.26 -55 111 C-66.22 111 -77.44 111 -89 111 C-89 118.59 -89 126.18 -89 134 C-92.63 134 -96.26 134 -100 134 C-100 130.04 -100 126.08 -100 122 C-110.89 122 -121.78 122 -133 122 C-133 114.74 -133 107.48 -133 100 C-129.37 100 -125.74 100 -122 100 C-122 103.63 -122 107.26 -122 111 C-118.37 111 -114.74 111 -111 111 C-111 100.11 -111 89.22 -111 78 C-114.63 78 -118.26 78 -122 78 C-122 81.63 -122 85.26 -122 89 C-125.63 89 -129.26 89 -133 89 C-133 85.37 -133 81.74 -133 78 C-136.63 78 -140.26 78 -144 78 C-144 70.74 -144 63.48 -144 56 C-121.89 56 -99.78 56 -77 56 C-77 44.78 -77 33.56 -77 22 C-73.37 22 -69.74 22 -66 22 C-66 33.22 -66 44.44 -66 56 C-62.37 56 -58.74 56 -55 56 C-55 59.63 -55 63.26 -55 67 C-47.74 67 -40.48 67 -33 67 C-33 63.37 -33 59.74 -33 56 C-29.37 56 -25.74 56 -22 56 C-22 52.37 -22 48.74 -22 45 C-18.37 45 -14.74 45 -11 45 C-11 41.37 -11 37.74 -11 34 C-14.63 34 -18.26 34 -22 34 C-22 30.04 -22 26.08 -22 22 C-18.37 22 -14.74 22 -11 22 C-11 18.37 -11 14.74 -11 11 C-7.37 11 -3.74 11 0 11 C0 7.37 0 3.74 0 0 Z " fill="#000000" transform="translate(277,166)"/>
<path d="M0 0 C3.96 0 7.92 0 12 0 C12 3.63 12 7.26 12 11 C19.26 11 26.52 11 34 11 C34 14.63 34 18.26 34 22 C37.63 22 41.26 22 45 22 C45 25.63 45 29.26 45 33 C41.37 33 37.74 33 34 33 C34 36.63 34 40.26 34 44 C30.37 44 26.74 44 23 44 C23 47.63 23 51.26 23 55 C19.37 55 15.74 55 12 55 C12 62.26 12 69.52 12 77 C4.41 77 -3.18 77 -11 77 C-11 88.22 -11 99.44 -11 111 C-14.63 111 -18.26 111 -22 111 C-22 99.78 -22 88.56 -22 77 C-29.26 77 -36.52 77 -44 77 C-44 73.37 -44 69.74 -44 66 C-47.63 66 -51.26 66 -55 66 C-55 73.59 -55 81.18 -55 89 C-51.37 89 -47.74 89 -44 89 C-44 96.26 -44 103.52 -44 111 C-51.26 111 -58.52 111 -66 111 C-66 114.63 -66 118.26 -66 122 C-69.63 122 -73.26 122 -77 122 C-77 114.74 -77 107.48 -77 100 C-73.37 100 -69.74 100 -66 100 C-66 96.37 -66 92.74 -66 89 C-69.63 89 -73.26 89 -77 89 C-77 70.52 -77 52.04 -77 33 C-73.37 33 -69.74 33 -66 33 C-66 36.63 -66 40.26 -66 44 C-62.37 44 -58.74 44 -55 44 C-55 36.74 -55 29.48 -55 22 C-47.74 22 -40.48 22 -33 22 C-33 25.63 -33 29.26 -33 33 C-29.37 33 -25.74 33 -22 33 C-22 25.74 -22 18.48 -22 11 C-14.74 11 -7.48 11 0 11 C0 7.37 0 3.74 0 0 Z " fill="#000000" transform="translate(188,311)"/>
<path d="M0 0 C7.26 0 14.52 0 22 0 C22 3.63 22 7.26 22 11 C40.48 11 58.96 11 78 11 C78 14.63 78 18.26 78 22 C74.37 22 70.74 22 67 22 C67 25.63 67 29.26 67 33 C70.63 33 74.26 33 78 33 C78 36.63 78 40.26 78 44 C81.63 44 85.26 44 89 44 C89 40.37 89 36.74 89 33 C92.63 33 96.26 33 100 33 C100 44.22 100 55.44 100 67 C92.74 67 85.48 67 78 67 C78 63.37 78 59.74 78 56 C74.37 56 70.74 56 67 56 C67 52.04 67 48.08 67 44 C55.78 44 44.56 44 33 44 C33 47.96 33 51.92 33 56 C40.59 56 48.18 56 56 56 C56 59.63 56 63.26 56 67 C48.41 67 40.82 67 33 67 C33 70.63 33 74.26 33 78 C36.96 78 40.92 78 45 78 C45 81.63 45 85.26 45 89 C41.04 89 37.08 89 33 89 C33 92.63 33 96.26 33 100 C25.74 100 18.48 100 11 100 C11 107.26 11 114.52 11 122 C7.37 122 3.74 122 0 122 C0 129.26 0 136.52 0 144 C3.63 144 7.26 144 11 144 C11 147.96 11 151.92 11 156 C3.74 156 -3.52 156 -11 156 C-11 159.63 -11 163.26 -11 167 C-18.26 167 -25.52 167 -33 167 C-33 155.78 -33 144.56 -33 133 C-29.37 133 -25.74 133 -22 133 C-22 129.37 -22 125.74 -22 122 C-25.63 122 -29.26 122 -33 122 C-33 118.37 -33 114.74 -33 111 C-22.11 111 -11.22 111 0 111 C0 107.37 0 103.74 0 100 C-3.63 100 -7.26 100 -11 100 C-11 96.37 -11 92.74 -11 89 C-7.37 89 -3.74 89 0 89 C0 85.37 0 81.74 0 78 C3.63 78 7.26 78 11 78 C11 81.63 11 85.26 11 89 C14.63 89 18.26 89 22 89 C22 78.11 22 67.22 22 56 C14.74 56 7.48 56 0 56 C0 48.41 0 40.82 0 33 C7.26 33 14.52 33 22 33 C22 29.37 22 25.74 22 22 C18.37 22 14.74 22 11 22 C11 18.37 11 14.74 11 11 C7.37 11 3.74 11 0 11 C0 7.37 0 3.74 0 0 Z " fill="#000000" transform="translate(55,144)"/>
<path d="M0 0 C3.63 0 7.26 0 11 0 C11 3.63 11 7.26 11 11 C21.89 11 32.78 11 44 11 C44 21.89 44 32.78 44 44 C40.37 44 36.74 44 33 44 C33 47.63 33 51.26 33 55 C36.63 55 40.26 55 44 55 C44 62.59 44 70.18 44 78 C40.37 78 36.74 78 33 78 C33 81.63 33 85.26 33 89 C29.37 89 25.74 89 22 89 C22 96.26 22 103.52 22 111 C18.37 111 14.74 111 11 111 C11 118.26 11 125.52 11 133 C3.74 133 -3.52 133 -11 133 C-11 129.37 -11 125.74 -11 122 C-7.37 122 -3.74 122 0 122 C0 118.37 0 114.74 0 111 C-3.63 111 -7.26 111 -11 111 C-11 103.74 -11 96.48 -11 89 C-7.37 89 -3.74 89 0 89 C0 85.37 0 81.74 0 78 C-3.63 78 -7.26 78 -11 78 C-11 74.04 -11 70.08 -11 66 C-14.63 66 -18.26 66 -22 66 C-22 62.37 -22 58.74 -22 55 C-25.63 55 -29.26 55 -33 55 C-33 51.37 -33 47.74 -33 44 C-36.63 44 -40.26 44 -44 44 C-44 40.37 -44 36.74 -44 33 C-47.96 33 -51.92 33 -56 33 C-56 29.37 -56 25.74 -56 22 C-48.41 22 -40.82 22 -33 22 C-33 18.37 -33 14.74 -33 11 C-22.11 11 -11.22 11 0 11 C0 7.37 0 3.74 0 0 Z " fill="#000000" transform="translate(344,22)"/>
<path d="M0 0 C25.74 0 51.48 0 78 0 C78 25.74 78 51.48 78 78 C52.26 78 26.52 78 0 78 C0 52.26 0 26.52 0 0 Z " fill="#000000" transform="translate(22,22)"/>
<path d="M0 0 C25.74 0 51.48 0 78 0 C78 25.41 78 50.82 78 77 C52.26 77 26.52 77 0 77 C0 51.59 0 26.18 0 0 Z " fill="#FFFFFF" transform="translate(22,400)"/>
<path d="M0 0 C25.41 0 50.82 0 77 0 C77 25.74 77 51.48 77 78 C51.59 78 26.18 78 0 78 C0 52.26 0 26.52 0 0 Z " fill="#FFFFFF" transform="translate(400,22)"/>
<path d="M0 0 C7.59 0 15.18 0 23 0 C23 3.63 23 7.26 23 11 C19.37 11 15.74 11 12 11 C12 18.26 12 25.52 12 33 C19.26 33 26.52 33 34 33 C34 29.37 34 25.74 34 22 C37.63 22 41.26 22 45 22 C45 14.74 45 7.48 45 0 C48.63 0 52.26 0 56 0 C56 18.15 56 36.3 56 55 C52.37 55 48.74 55 45 55 C45 58.96 45 62.92 45 67 C48.63 67 52.26 67 56 67 C56 70.63 56 74.26 56 78 C52.37 78 48.74 78 45 78 C45 92.52 45 107.04 45 122 C41.37 122 37.74 122 34 122 C34 114.74 34 107.48 34 100 C19.15 100 4.3 100 -11 100 C-11 89.11 -11 78.22 -11 67 C-14.63 67 -18.26 67 -22 67 C-22 55.78 -22 44.56 -22 33 C-18.37 33 -14.74 33 -11 33 C-11 29.37 -11 25.74 -11 22 C-7.37 22 -3.74 22 0 22 C0 14.74 0 7.48 0 0 Z " fill="#000000" transform="translate(388,333)"/>
<path d="M0 0 C7.26 0 14.52 0 22 0 C22 3.63 22 7.26 22 11 C25.63 11 29.26 11 33 11 C33 14.63 33 18.26 33 22 C36.63 22 40.26 22 44 22 C44 25.63 44 29.26 44 33 C40.37 33 36.74 33 33 33 C33 47.85 33 62.7 33 78 C29.37 78 25.74 78 22 78 C22 70.74 22 63.48 22 56 C14.74 56 7.48 56 0 56 C0 59.63 0 63.26 0 67 C3.63 67 7.26 67 11 67 C11 70.63 11 74.26 11 78 C7.37 78 3.74 78 0 78 C0 81.63 0 85.26 0 89 C7.26 89 14.52 89 22 89 C22 92.63 22 96.26 22 100 C18.37 100 14.74 100 11 100 C11 107.26 11 114.52 11 122 C7.37 122 3.74 122 0 122 C0 118.37 0 114.74 0 111 C-7.59 111 -15.18 111 -23 111 C-23 107.37 -23 103.74 -23 100 C-26.63 100 -30.26 100 -34 100 C-34 96.37 -34 92.74 -34 89 C-30.37 89 -26.74 89 -23 89 C-23 85.37 -23 81.74 -23 78 C-26.63 78 -30.26 78 -34 78 C-34 70.74 -34 63.48 -34 56 C-30.37 56 -26.74 56 -23 56 C-23 59.63 -23 63.26 -23 67 C-19.04 67 -15.08 67 -11 67 C-11 59.41 -11 51.82 -11 44 C-18.59 44 -26.18 44 -34 44 C-34 40.37 -34 36.74 -34 33 C-37.63 33 -41.26 33 -45 33 C-45 29.37 -45 25.74 -45 22 C-41.37 22 -37.74 22 -34 22 C-34 18.37 -34 14.74 -34 11 C-22.78 11 -11.56 11 0 11 C0 7.37 0 3.74 0 0 Z " fill="#000000" transform="translate(411,144)"/>
<path d="M0 0 C3.63 0 7.26 0 11 0 C11 3.63 11 7.26 11 11 C18.59 11 26.18 11 34 11 C34 14.63 34 18.26 34 22 C30.04 22 26.08 22 22 22 C22 25.63 22 29.26 22 33 C29.59 33 37.18 33 45 33 C45 36.63 45 40.26 45 44 C37.41 44 29.82 44 22 44 C22 47.63 22 51.26 22 55 C25.96 55 29.92 55 34 55 C34 58.63 34 62.26 34 66 C26.41 66 18.82 66 11 66 C11 69.63 11 73.26 11 77 C18.59 77 26.18 77 34 77 C34 80.63 34 84.26 34 88 C22.78 88 11.56 88 0 88 C0 84.37 0 80.74 0 77 C-3.63 77 -7.26 77 -11 77 C-11 73.37 -11 69.74 -11 66 C-14.63 66 -18.26 66 -22 66 C-22 62.37 -22 58.74 -22 55 C-25.63 55 -29.26 55 -33 55 C-33 51.37 -33 47.74 -33 44 C-25.74 44 -18.48 44 -11 44 C-11 33.11 -11 22.22 -11 11 C-7.37 11 -3.74 11 0 11 C0 7.37 0 3.74 0 0 Z " fill="#000000" transform="translate(66,300)"/>
<path d="M0 0 C3.63 0 7.26 0 11 0 C11 7.26 11 14.52 11 22 C18.26 22 25.52 22 33 22 C33 25.63 33 29.26 33 33 C29.37 33 25.74 33 22 33 C22 36.63 22 40.26 22 44 C29.26 44 36.52 44 44 44 C44 58.52 44 73.04 44 88 C47.63 88 51.26 88 55 88 C55 91.96 55 95.92 55 100 C51.37 100 47.74 100 44 100 C44 103.63 44 107.26 44 111 C40.37 111 36.74 111 33 111 C33 107.37 33 103.74 33 100 C29.37 100 25.74 100 22 100 C22 96.04 22 92.08 22 88 C25.63 88 29.26 88 33 88 C33 84.37 33 80.74 33 77 C25.74 77 18.48 77 11 77 C11 73.37 11 69.74 11 66 C7.37 66 3.74 66 0 66 C0 69.63 0 73.26 0 77 C-3.63 77 -7.26 77 -11 77 C-11 80.63 -11 84.26 -11 88 C-14.63 88 -18.26 88 -22 88 C-22 80.74 -22 73.48 -22 66 C-18.37 66 -14.74 66 -11 66 C-11 62.37 -11 58.74 -11 55 C-7.37 55 -3.74 55 0 55 C0 51.37 0 47.74 0 44 C3.63 44 7.26 44 11 44 C11 40.37 11 36.74 11 33 C7.37 33 3.74 33 0 33 C0 29.37 0 25.74 0 22 C-7.26 22 -14.52 22 -22 22 C-22 18.37 -22 14.74 -22 11 C-14.74 11 -7.48 11 0 11 C0 7.37 0 3.74 0 0 Z " fill="#FFFFFF" transform="translate(222,300)"/>
<path d="M0 0 C3.63 0 7.26 0 11 0 C11 3.63 11 7.26 11 11 C21.89 11 32.78 11 44 11 C44 21.89 44 32.78 44 44 C40.37 44 36.74 44 33 44 C33 40.37 33 36.74 33 33 C29.37 33 25.74 33 22 33 C22 29.37 22 25.74 22 22 C11.11 22 0.22 22 -11 22 C-11 25.63 -11 29.26 -11 33 C-3.74 33 3.52 33 11 33 C11 36.63 11 40.26 11 44 C3.74 44 -3.52 44 -11 44 C-11 47.63 -11 51.26 -11 55 C-7.37 55 -3.74 55 0 55 C0 62.59 0 70.18 0 78 C-3.63 78 -7.26 78 -11 78 C-11 74.04 -11 70.08 -11 66 C-14.63 66 -18.26 66 -22 66 C-22 62.37 -22 58.74 -22 55 C-25.63 55 -29.26 55 -33 55 C-33 51.37 -33 47.74 -33 44 C-36.63 44 -40.26 44 -44 44 C-44 40.37 -44 36.74 -44 33 C-47.96 33 -51.92 33 -56 33 C-56 29.37 -56 25.74 -56 22 C-48.41 22 -40.82 22 -33 22 C-33 18.37 -33 14.74 -33 11 C-22.11 11 -11.22 11 0 11 C0 7.37 0 3.74 0 0 Z " fill="#000000" transform="translate(344,22)"/>
<path d="M0 0 C18.15 0 36.3 0 55 0 C55 18.15 55 36.3 55 55 C36.85 55 18.7 55 0 55 C0 36.85 0 18.7 0 0 Z " fill="#FFFFFF" transform="translate(33,33)"/>
<path d="M0 0 C25.74 0 51.48 0 78 0 C78 25.41 78 50.82 78 77 C52.26 77 26.52 77 0 77 C0 51.59 0 26.18 0 0 Z M11 11 C11 29.15 11 47.3 11 66 C29.15 66 47.3 66 66 66 C66 47.85 66 29.7 66 11 C47.85 11 29.7 11 11 11 Z " fill="#000000" transform="translate(22,400)"/>
<path d="M0 0 C25.41 0 50.82 0 77 0 C77 25.74 77 51.48 77 78 C51.59 78 26.18 78 0 78 C0 52.26 0 26.52 0 0 Z M11 11 C11 29.15 11 47.3 11 66 C29.15 66 47.3 66 66 66 C66 47.85 66 29.7 66 11 C47.85 11 29.7 11 11 11 Z " fill="#000000" transform="translate(400,22)"/>
<path d="M0 0 C3.96 0 7.92 0 12 0 C12 3.63 12 7.26 12 11 C19.26 11 26.52 11 34 11 C34 14.63 34 18.26 34 22 C37.63 22 41.26 22 45 22 C45 25.63 45 29.26 45 33 C41.37 33 37.74 33 34 33 C34 36.63 34 40.26 34 44 C30.37 44 26.74 44 23 44 C23 47.63 23 51.26 23 55 C15.41 55 7.82 55 0 55 C0 58.63 0 62.26 0 66 C-7.26 66 -14.52 66 -22 66 C-22 62.37 -22 58.74 -22 55 C-25.63 55 -29.26 55 -33 55 C-33 51.37 -33 47.74 -33 44 C-29.37 44 -25.74 44 -22 44 C-22 33.11 -22 22.22 -22 11 C-14.74 11 -7.48 11 0 11 C0 7.37 0 3.74 0 0 Z " fill="#000000" transform="translate(188,311)"/>
<path d="M0 0 C10.89 0 21.78 0 33 0 C33 3.96 33 7.92 33 12 C25.74 12 18.48 12 11 12 C11 15.63 11 19.26 11 23 C18.26 23 25.52 23 33 23 C33 59.63 33 96.26 33 134 C29.37 134 25.74 134 22 134 C22 137.63 22 141.26 22 145 C14.74 145 7.48 145 0 145 C0 141.37 0 137.74 0 134 C3.63 134 7.26 134 11 134 C11 115.52 11 97.04 11 78 C14.63 78 18.26 78 22 78 C22 63.48 22 48.96 22 34 C14.74 34 7.48 34 0 34 C0 30.37 0 26.74 0 23 C-3.63 23 -7.26 23 -11 23 C-11 19.37 -11 15.74 -11 12 C-7.37 12 -3.74 12 0 12 C0 8.04 0 4.08 0 0 Z " fill="#000000" transform="translate(444,288)"/>
<path d="M0 0 C7.26 0 14.52 0 22 0 C22 3.63 22 7.26 22 11 C40.48 11 58.96 11 78 11 C78 14.63 78 18.26 78 22 C74.37 22 70.74 22 67 22 C67 25.63 67 29.26 67 33 C70.63 33 74.26 33 78 33 C78 36.63 78 40.26 78 44 C81.63 44 85.26 44 89 44 C89 40.37 89 36.74 89 33 C92.63 33 96.26 33 100 33 C100 44.22 100 55.44 100 67 C92.74 67 85.48 67 78 67 C78 63.37 78 59.74 78 56 C74.37 56 70.74 56 67 56 C67 52.04 67 48.08 67 44 C52.15 44 37.3 44 22 44 C22 36.74 22 29.48 22 22 C18.37 22 14.74 22 11 22 C11 18.37 11 14.74 11 11 C7.37 11 3.74 11 0 11 C0 7.37 0 3.74 0 0 Z " fill="#000000" transform="translate(55,144)"/>
<path d="M0 0 C7.26 0 14.52 0 22 0 C22 3.63 22 7.26 22 11 C25.63 11 29.26 11 33 11 C33 18.26 33 25.52 33 33 C40.26 33 47.52 33 55 33 C55 40.26 55 47.52 55 55 C51.37 55 47.74 55 44 55 C44 51.37 44 47.74 44 44 C36.74 44 29.48 44 22 44 C22 51.59 22 59.18 22 67 C18.37 67 14.74 67 11 67 C11 63.04 11 59.08 11 55 C7.37 55 3.74 55 0 55 C0 58.96 0 62.92 0 67 C-3.63 67 -7.26 67 -11 67 C-11 63.04 -11 59.08 -11 55 C-14.63 55 -18.26 55 -22 55 C-22 58.96 -22 62.92 -22 67 C-25.63 67 -29.26 67 -33 67 C-33 52.15 -33 37.3 -33 22 C-29.37 22 -25.74 22 -22 22 C-22 29.26 -22 36.52 -22 44 C-11.11 44 -0.22 44 11 44 C11 40.37 11 36.74 11 33 C7.37 33 3.74 33 0 33 C0 22.11 0 11.22 0 0 Z " fill="#000000" transform="translate(233,33)"/>
<path d="M0 0 C3.63 0 7.26 0 11 0 C11 10.89 11 21.78 11 33 C25.85 33 40.7 33 56 33 C56 29.37 56 25.74 56 22 C44.78 22 33.56 22 22 22 C22 14.74 22 7.48 22 0 C29.26 0 36.52 0 44 0 C44 3.63 44 7.26 44 11 C51.59 11 59.18 11 67 11 C67 7.37 67 3.74 67 0 C70.63 0 74.26 0 78 0 C78 14.52 78 29.04 78 44 C74.37 44 70.74 44 67 44 C67 47.63 67 51.26 67 55 C63.37 55 59.74 55 56 55 C56 51.37 56 47.74 56 44 C37.52 44 19.04 44 0 44 C0 40.37 0 36.74 0 33 C-7.26 33 -14.52 33 -22 33 C-22 29.37 -22 25.74 -22 22 C-14.74 22 -7.48 22 0 22 C0 14.74 0 7.48 0 0 Z " fill="#000000" transform="translate(244,111)"/>
<path d="M0 0 C3.63 0 7.26 0 11 0 C11 7.26 11 14.52 11 22 C14.63 22 18.26 22 22 22 C22 18.37 22 14.74 22 11 C25.63 11 29.26 11 33 11 C33 21.89 33 32.78 33 44 C36.63 44 40.26 44 44 44 C44 47.63 44 51.26 44 55 C36.74 55 29.48 55 22 55 C22 58.63 22 62.26 22 66 C11.11 66 0.22 66 -11 66 C-11 62.37 -11 58.74 -11 55 C-7.37 55 -3.74 55 0 55 C0 51.37 0 47.74 0 44 C-3.63 44 -7.26 44 -11 44 C-11 40.37 -11 36.74 -11 33 C-14.96 33 -18.92 33 -23 33 C-23 25.74 -23 18.48 -23 11 C-15.41 11 -7.82 11 0 11 C0 7.37 0 3.74 0 0 Z " fill="#000000" transform="translate(311,322)"/>
<path d="M0 0 C3.63 0 7.26 0 11 0 C11 14.52 11 29.04 11 44 C18.26 44 25.52 44 33 44 C33 47.63 33 51.26 33 55 C29.37 55 25.74 55 22 55 C22 58.63 22 62.26 22 66 C25.63 66 29.26 66 33 66 C33 69.63 33 73.26 33 77 C25.74 77 18.48 77 11 77 C11 73.37 11 69.74 11 66 C7.37 66 3.74 66 0 66 C0 69.63 0 73.26 0 77 C-3.63 77 -7.26 77 -11 77 C-11 69.74 -11 62.48 -11 55 C-14.63 55 -18.26 55 -22 55 C-22 47.74 -22 40.48 -22 33 C-25.63 33 -29.26 33 -33 33 C-33 29.37 -33 25.74 -33 22 C-25.74 22 -18.48 22 -11 22 C-11 18.37 -11 14.74 -11 11 C-7.37 11 -3.74 11 0 11 C0 7.37 0 3.74 0 0 Z " fill="#000000" transform="translate(355,400)"/>
<path d="M0 0 C14.52 0 29.04 0 44 0 C44 3.63 44 7.26 44 11 C47.63 11 51.26 11 55 11 C55 7.37 55 3.74 55 0 C58.63 0 62.26 0 66 0 C66 3.63 66 7.26 66 11 C69.63 11 73.26 11 77 11 C77 21.89 77 32.78 77 44 C69.74 44 62.48 44 55 44 C55 40.37 55 36.74 55 33 C58.63 33 62.26 33 66 33 C66 29.37 66 25.74 66 22 C58.74 22 51.48 22 44 22 C44 25.63 44 29.26 44 33 C40.37 33 36.74 33 33 33 C33 36.63 33 40.26 33 44 C36.63 44 40.26 44 44 44 C44 47.63 44 51.26 44 55 C36.74 55 29.48 55 22 55 C22 47.74 22 40.48 22 33 C18.37 33 14.74 33 11 33 C11 29.37 11 25.74 11 22 C18.26 22 25.52 22 33 22 C33 18.37 33 14.74 33 11 C22.11 11 11.22 11 0 11 C0 7.37 0 3.74 0 0 Z " fill="#000000" transform="translate(111,22)"/>
<path d="M0 0 C3.63 0 7.26 0 11 0 C11 11.22 11 22.44 11 34 C14.63 34 18.26 34 22 34 C22 37.63 22 41.26 22 45 C3.52 45 -14.96 45 -34 45 C-34 48.63 -34 52.26 -34 56 C-37.63 56 -41.26 56 -45 56 C-45 59.63 -45 63.26 -45 67 C-48.63 67 -52.26 67 -56 67 C-56 63.37 -56 59.74 -56 56 C-59.63 56 -63.26 56 -67 56 C-67 48.74 -67 41.48 -67 34 C-44.89 34 -22.78 34 0 34 C0 22.78 0 11.56 0 0 Z " fill="#000000" transform="translate(200,188)"/>
<path d="M0 0 C7.26 0 14.52 0 22 0 C22 3.63 22 7.26 22 11 C18.37 11 14.74 11 11 11 C11 18.26 11 25.52 11 33 C3.74 33 -3.52 33 -11 33 C-11 36.63 -11 40.26 -11 44 C-18.59 44 -26.18 44 -34 44 C-34 40.37 -34 36.74 -34 33 C-37.63 33 -41.26 33 -45 33 C-45 29.37 -45 25.74 -45 22 C-41.37 22 -37.74 22 -34 22 C-34 18.37 -34 14.74 -34 11 C-22.78 11 -11.56 11 0 11 C0 7.37 0 3.74 0 0 Z " fill="#000000" transform="translate(411,144)"/>
<path d="M0 0 C7.59 0 15.18 0 23 0 C23 3.96 23 7.92 23 12 C26.63 12 30.26 12 34 12 C34 15.63 34 19.26 34 23 C37.63 23 41.26 23 45 23 C45 26.63 45 30.26 45 34 C41.37 34 37.74 34 34 34 C34 37.63 34 41.26 34 45 C26.41 45 18.82 45 11 45 C11 41.37 11 37.74 11 34 C7.37 34 3.74 34 0 34 C0 30.37 0 26.74 0 23 C-3.63 23 -7.26 23 -11 23 C-11 19.37 -11 15.74 -11 12 C-7.37 12 -3.74 12 0 12 C0 8.04 0 4.08 0 0 Z " fill="#000000" transform="translate(277,388)"/>
<path d="M0 0 C7.26 0 14.52 0 22 0 C22 3.63 22 7.26 22 11 C29.26 11 36.52 11 44 11 C44 14.96 44 18.92 44 23 C40.37 23 36.74 23 33 23 C33 33.89 33 44.78 33 56 C25.74 56 18.48 56 11 56 C11 52.37 11 48.74 11 45 C14.63 45 18.26 45 22 45 C22 37.74 22 30.48 22 23 C18.37 23 14.74 23 11 23 C11 26.63 11 30.26 11 34 C3.74 34 -3.52 34 -11 34 C-11 30.37 -11 26.74 -11 23 C-7.37 23 -3.74 23 0 23 C0 15.41 0 7.82 0 0 Z " fill="#000000" transform="translate(333,277)"/>
<path d="M0 0 C7.26 0 14.52 0 22 0 C22 21.78 22 43.56 22 66 C11.11 66 0.22 66 -11 66 C-11 58.74 -11 51.48 -11 44 C-7.37 44 -3.74 44 0 44 C0 47.63 0 51.26 0 55 C3.63 55 7.26 55 11 55 C11 44.11 11 33.22 11 22 C3.74 22 -3.52 22 -11 22 C-11 18.37 -11 14.74 -11 11 C-7.37 11 -3.74 11 0 11 C0 7.37 0 3.74 0 0 Z " fill="#000000" transform="translate(455,211)"/>
<path d="M0 0 C11.22 0 22.44 0 34 0 C34 3.63 34 7.26 34 11 C26.41 11 18.82 11 11 11 C11 18.26 11 25.52 11 33 C14.96 33 18.92 33 23 33 C23 36.63 23 40.26 23 44 C26.63 44 30.26 44 34 44 C34 47.63 34 51.26 34 55 C30.37 55 26.74 55 23 55 C23 58.63 23 62.26 23 66 C15.41 66 7.82 66 0 66 C0 62.37 0 58.74 0 55 C3.63 55 7.26 55 11 55 C11 51.37 11 47.74 11 44 C7.37 44 3.74 44 0 44 C0 29.48 0 14.96 0 0 Z " fill="#FFFFFF" transform="translate(277,322)"/>
<path d="M0 0 C7.26 0 14.52 0 22 0 C22 3.63 22 7.26 22 11 C29.59 11 37.18 11 45 11 C45 7.37 45 3.74 45 0 C48.63 0 52.26 0 56 0 C56 14.52 56 29.04 56 44 C52.37 44 48.74 44 45 44 C45 40.37 45 36.74 45 33 C41.37 33 37.74 33 34 33 C34 29.37 34 25.74 34 22 C22.78 22 11.56 22 0 22 C0 14.74 0 7.48 0 0 Z " fill="#000000" transform="translate(266,111)"/>
<path d="M0 0 C3.63 0 7.26 0 11 0 C11 3.63 11 7.26 11 11 C14.63 11 18.26 11 22 11 C22 18.26 22 25.52 22 33 C18.37 33 14.74 33 11 33 C11 40.26 11 47.52 11 55 C3.74 55 -3.52 55 -11 55 C-11 51.37 -11 47.74 -11 44 C-7.37 44 -3.74 44 0 44 C0 40.37 0 36.74 0 33 C-3.63 33 -7.26 33 -11 33 C-11 25.74 -11 18.48 -11 11 C-7.37 11 -3.74 11 0 11 C0 7.37 0 3.74 0 0 Z " fill="#000000" transform="translate(344,100)"/>
<path d="M0 0 C11.22 0 22.44 0 34 0 C34 11.22 34 22.44 34 34 C22.78 34 11.56 34 0 34 C0 22.78 0 11.56 0 0 Z " fill="#FFFFFF" transform="translate(388,388)"/>
<path d="M0 0 C10.89 0 21.78 0 33 0 C33 3.96 33 7.92 33 12 C40.26 12 47.52 12 55 12 C55 15.63 55 19.26 55 23 C51.37 23 47.74 23 44 23 C44 26.63 44 30.26 44 34 C36.74 34 29.48 34 22 34 C22 30.37 22 26.74 22 23 C18.37 23 14.74 23 11 23 C11 19.37 11 15.74 11 12 C7.37 12 3.74 12 0 12 C0 8.04 0 4.08 0 0 Z " fill="#FFFFFF" transform="translate(300,388)"/>
<path d="M0 0 C3.63 0 7.26 0 11 0 C11 3.96 11 7.92 11 12 C14.63 12 18.26 12 22 12 C22 15.63 22 19.26 22 23 C18.37 23 14.74 23 11 23 C11 30.26 11 37.52 11 45 C14.63 45 18.26 45 22 45 C22 48.63 22 52.26 22 56 C18.37 56 14.74 56 11 56 C11 59.63 11 63.26 11 67 C7.37 67 3.74 67 0 67 C0 52.48 0 37.96 0 23 C-3.63 23 -7.26 23 -11 23 C-11 19.37 -11 15.74 -11 12 C-7.37 12 -3.74 12 0 12 C0 8.04 0 4.08 0 0 Z " fill="#FFFFFF" transform="translate(322,88)"/>
<path d="M0 0 C10.89 0 21.78 0 33 0 C33 10.89 33 21.78 33 33 C22.11 33 11.22 33 0 33 C0 22.11 0 11.22 0 0 Z " fill="#000000" transform="translate(44,422)"/>
<path d="M0 0 C3.63 0 7.26 0 11 0 C11 3.63 11 7.26 11 11 C18.26 11 25.52 11 33 11 C33 7.37 33 3.74 33 0 C36.63 0 40.26 0 44 0 C44 7.26 44 14.52 44 22 C40.37 22 36.74 22 33 22 C33 25.63 33 29.26 33 33 C29.37 33 25.74 33 22 33 C22 36.63 22 40.26 22 44 C18.37 44 14.74 44 11 44 C11 36.74 11 29.48 11 22 C7.37 22 3.74 22 0 22 C0 14.74 0 7.48 0 0 Z " fill="#FFFFFF" transform="translate(311,300)"/>
<path d="M0 0 C10.89 0 21.78 0 33 0 C33 10.89 33 21.78 33 33 C22.11 33 11.22 33 0 33 C0 22.11 0 11.22 0 0 Z " fill="#000000" transform="translate(422,44)"/>
<path d="M0 0 C10.89 0 21.78 0 33 0 C33 10.89 33 21.78 33 33 C22.11 33 11.22 33 0 33 C0 22.11 0 11.22 0 0 Z " fill="#000000" transform="translate(44,44)"/>
<path d="M0 0 C7.26 0 14.52 0 22 0 C22 3.63 22 7.26 22 11 C25.96 11 29.92 11 34 11 C34 14.63 34 18.26 34 22 C30.04 22 26.08 22 22 22 C22 25.63 22 29.26 22 33 C14.74 33 7.48 33 0 33 C0 29.37 0 25.74 0 22 C-3.63 22 -7.26 22 -11 22 C-11 18.37 -11 14.74 -11 11 C-7.37 11 -3.74 11 0 11 C0 7.37 0 3.74 0 0 Z " fill="#FFFFFF" transform="translate(166,344)"/>
<path d="M0 0 C3.63 0 7.26 0 11 0 C11 3.63 11 7.26 11 11 C18.26 11 25.52 11 33 11 C33 14.63 33 18.26 33 22 C36.96 22 40.92 22 45 22 C45 18.37 45 14.74 45 11 C48.63 11 52.26 11 56 11 C56 18.26 56 25.52 56 33 C44.78 33 33.56 33 22 33 C22 29.37 22 25.74 22 22 C14.74 22 7.48 22 0 22 C0 14.74 0 7.48 0 0 Z " fill="#000000" transform="translate(155,122)"/>
<path d="M0 0 C7.26 0 14.52 0 22 0 C22 3.63 22 7.26 22 11 C25.63 11 29.26 11 33 11 C33 14.63 33 18.26 33 22 C29.37 22 25.74 22 22 22 C22 29.26 22 36.52 22 44 C14.74 44 7.48 44 0 44 C0 36.74 0 29.48 0 22 C3.63 22 7.26 22 11 22 C11 18.37 11 14.74 11 11 C7.37 11 3.74 11 0 11 C0 7.37 0 3.74 0 0 Z " fill="#000000" transform="translate(122,433)"/>
<path d="M0 0 C3.63 0 7.26 0 11 0 C11 3.63 11 7.26 11 11 C14.63 11 18.26 11 22 11 C22 14.63 22 18.26 22 22 C25.63 22 29.26 22 33 22 C33 25.96 33 29.92 33 34 C36.96 34 40.92 34 45 34 C45 37.63 45 41.26 45 45 C37.41 45 29.82 45 22 45 C22 41.37 22 37.74 22 34 C18.37 34 14.74 34 11 34 C11 30.04 11 26.08 11 22 C7.37 22 3.74 22 0 22 C0 14.74 0 7.48 0 0 Z " fill="#FFFFFF" transform="translate(55,266)"/>
<path d="M0 0 C3.63 0 7.26 0 11 0 C11 7.59 11 15.18 11 23 C14.63 23 18.26 23 22 23 C22 26.63 22 30.26 22 34 C18.37 34 14.74 34 11 34 C11 37.63 11 41.26 11 45 C3.74 45 -3.52 45 -11 45 C-11 37.74 -11 30.48 -11 23 C-7.37 23 -3.74 23 0 23 C0 15.41 0 7.82 0 0 Z " fill="#000000" transform="translate(33,177)"/>
<path d="M0 0 C7.26 0 14.52 0 22 0 C22 3.63 22 7.26 22 11 C25.63 11 29.26 11 33 11 C33 14.63 33 18.26 33 22 C29.37 22 25.74 22 22 22 C22 25.63 22 29.26 22 33 C18.37 33 14.74 33 11 33 C11 29.37 11 25.74 11 22 C3.74 22 -3.52 22 -11 22 C-11 18.37 -11 14.74 -11 11 C-7.37 11 -3.74 11 0 11 C0 7.37 0 3.74 0 0 Z " fill="#000000" transform="translate(211,155)"/>
<path d="M0 0 C7.59 0 15.18 0 23 0 C23 3.96 23 7.92 23 12 C30.26 12 37.52 12 45 12 C45 15.63 45 19.26 45 23 C30.15 23 15.3 23 0 23 C0 15.41 0 7.82 0 0 Z " fill="#FFFFFF" transform="translate(177,388)"/>
<path d="M0 0 C7.59 0 15.18 0 23 0 C23 7.59 23 15.18 23 23 C26.63 23 30.26 23 34 23 C34 26.63 34 30.26 34 34 C30.37 34 26.74 34 23 34 C23 37.63 23 41.26 23 45 C19.37 45 15.74 45 12 45 C12 34.11 12 23.22 12 12 C8.04 12 4.08 12 0 12 C0 8.04 0 4.08 0 0 Z " fill="#000000" transform="translate(288,188)"/>
<path d="M0 0 C18.48 0 36.96 0 56 0 C56 3.63 56 7.26 56 11 C44.78 11 33.56 11 22 11 C22 14.63 22 18.26 22 22 C18.37 22 14.74 22 11 22 C11 18.37 11 14.74 11 11 C7.37 11 3.74 11 0 11 C0 7.37 0 3.74 0 0 Z " fill="#FFFFFF" transform="translate(166,233)"/>
<path d="M0 0 C11.22 0 22.44 0 34 0 C34 3.63 34 7.26 34 11 C30.04 11 26.08 11 22 11 C22 14.63 22 18.26 22 22 C11.11 22 0.22 22 -11 22 C-11 18.37 -11 14.74 -11 11 C-7.37 11 -3.74 11 0 11 C0 7.37 0 3.74 0 0 Z " fill="#000000" transform="translate(66,111)"/>
<path d="M0 0 C7.26 0 14.52 0 22 0 C22 3.63 22 7.26 22 11 C25.63 11 29.26 11 33 11 C33 14.63 33 18.26 33 22 C25.74 22 18.48 22 11 22 C11 25.63 11 29.26 11 33 C7.37 33 3.74 33 0 33 C0 22.11 0 11.22 0 0 Z " fill="#000000" transform="translate(133,333)"/>
<path d="M0 0 C3.63 0 7.26 0 11 0 C11 14.52 11 29.04 11 44 C7.37 44 3.74 44 0 44 C0 40.37 0 36.74 0 33 C-3.63 33 -7.26 33 -11 33 C-11 25.74 -11 18.48 -11 11 C-7.37 11 -3.74 11 0 11 C0 7.37 0 3.74 0 0 Z " fill="#000000" transform="translate(466,111)"/>
<path d="M0 0 C3.63 0 7.26 0 11 0 C11 3.63 11 7.26 11 11 C18.26 11 25.52 11 33 11 C33 14.63 33 18.26 33 22 C22.11 22 11.22 22 0 22 C0 25.63 0 29.26 0 33 C-3.63 33 -7.26 33 -11 33 C-11 25.74 -11 18.48 -11 11 C-7.37 11 -3.74 11 0 11 C0 7.37 0 3.74 0 0 Z " fill="#000000" transform="translate(122,100)"/>
<path d="M0 0 C7.59 0 15.18 0 23 0 C23 3.63 23 7.26 23 11 C19.37 11 15.74 11 12 11 C12 18.26 12 25.52 12 33 C4.41 33 -3.18 33 -11 33 C-11 29.37 -11 25.74 -11 22 C-7.37 22 -3.74 22 0 22 C0 14.74 0 7.48 0 0 Z " fill="#000000" transform="translate(388,333)"/>
<path d="M0 0 C3.63 0 7.26 0 11 0 C11 3.63 11 7.26 11 11 C14.96 11 18.92 11 23 11 C23 14.63 23 18.26 23 22 C19.04 22 15.08 22 11 22 C11 25.63 11 29.26 11 33 C7.37 33 3.74 33 0 33 C0 29.37 0 25.74 0 22 C-3.63 22 -7.26 22 -11 22 C-11 18.37 -11 14.74 -11 11 C-7.37 11 -3.74 11 0 11 C0 7.37 0 3.74 0 0 Z " fill="#000000" transform="translate(77,255)"/>
<path d="M0 0 C7.59 0 15.18 0 23 0 C23 3.63 23 7.26 23 11 C26.63 11 30.26 11 34 11 C34 18.26 34 25.52 34 33 C30.37 33 26.74 33 23 33 C23 29.37 23 25.74 23 22 C19.37 22 15.74 22 12 22 C12 18.37 12 14.74 12 11 C8.04 11 4.08 11 0 11 C0 7.37 0 3.74 0 0 Z " fill="#000000" transform="translate(188,22)"/>
<path d="M0 0 C10.89 0 21.78 0 33 0 C33 3.63 33 7.26 33 11 C36.63 11 40.26 11 44 11 C44 14.63 44 18.26 44 22 C36.74 22 29.48 22 22 22 C22 18.37 22 14.74 22 11 C14.74 11 7.48 11 0 11 C0 7.37 0 3.74 0 0 Z " fill="#FFFFFF" transform="translate(333,44)"/>
<path d="M0 0 C3.96 0 7.92 0 12 0 C12 3.63 12 7.26 12 11 C19.26 11 26.52 11 34 11 C34 14.96 34 18.92 34 23 C22.78 23 11.56 23 0 23 C0 15.41 0 7.82 0 0 Z " fill="#000000" transform="translate(388,277)"/>
<path d="M0 0 C3.63 0 7.26 0 11 0 C11 3.63 11 7.26 11 11 C14.63 11 18.26 11 22 11 C22 18.59 22 26.18 22 34 C18.37 34 14.74 34 11 34 C11 30.04 11 26.08 11 22 C7.37 22 3.74 22 0 22 C0 14.74 0 7.48 0 0 Z " fill="#000000" transform="translate(300,266)"/>
<path d="M0 0 C7.59 0 15.18 0 23 0 C23 3.63 23 7.26 23 11 C19.04 11 15.08 11 11 11 C11 18.26 11 25.52 11 33 C7.37 33 3.74 33 0 33 C0 22.11 0 11.22 0 0 Z " fill="#000000" transform="translate(377,111)"/>
<path d="M0 0 C3.63 0 7.26 0 11 0 C11 11.22 11 22.44 11 34 C3.74 34 -3.52 34 -11 34 C-11 30.37 -11 26.74 -11 23 C-7.37 23 -3.74 23 0 23 C0 15.41 0 7.82 0 0 Z " fill="#000000" transform="translate(177,88)"/>
<path d="M0 0 C7.26 0 14.52 0 22 0 C22 11.22 22 22.44 22 34 C18.37 34 14.74 34 11 34 C11 26.41 11 18.82 11 11 C7.37 11 3.74 11 0 11 C0 7.37 0 3.74 0 0 Z " fill="#FFFFFF" transform="translate(333,66)"/>
<path d="M0 0 C3.63 0 7.26 0 11 0 C11 3.63 11 7.26 11 11 C14.63 11 18.26 11 22 11 C22 14.63 22 18.26 22 22 C11.11 22 0.22 22 -11 22 C-11 18.37 -11 14.74 -11 11 C-7.37 11 -3.74 11 0 11 C0 7.37 0 3.74 0 0 Z " fill="#000000" transform="translate(455,455)"/>
<path d="M0 0 C7.26 0 14.52 0 22 0 C22 10.89 22 21.78 22 33 C18.37 33 14.74 33 11 33 C11 25.74 11 18.48 11 11 C7.37 11 3.74 11 0 11 C0 7.37 0 3.74 0 0 Z " fill="#000000" transform="translate(322,422)"/>
<path d="M0 0 C3.63 0 7.26 0 11 0 C11 3.63 11 7.26 11 11 C14.63 11 18.26 11 22 11 C22 14.63 22 18.26 22 22 C11.11 22 0.22 22 -11 22 C-11 18.37 -11 14.74 -11 11 C-7.37 11 -3.74 11 0 11 C0 7.37 0 3.74 0 0 Z " fill="#000000" transform="translate(333,244)"/>
<path d="M0 0 C3.63 0 7.26 0 11 0 C11 7.26 11 14.52 11 22 C14.63 22 18.26 22 22 22 C22 25.63 22 29.26 22 33 C14.74 33 7.48 33 0 33 C0 22.11 0 11.22 0 0 Z " fill="#000000" transform="translate(333,200)"/>
<path d="M0 0 C3.63 0 7.26 0 11 0 C11 3.63 11 7.26 11 11 C14.63 11 18.26 11 22 11 C22 14.63 22 18.26 22 22 C11.11 22 0.22 22 -11 22 C-11 18.37 -11 14.74 -11 11 C-7.37 11 -3.74 11 0 11 C0 7.37 0 3.74 0 0 Z " fill="#000000" transform="translate(33,144)"/>
<path d="M0 0 C3.63 0 7.26 0 11 0 C11 3.63 11 7.26 11 11 C14.63 11 18.26 11 22 11 C22 18.26 22 25.52 22 33 C18.37 33 14.74 33 11 33 C11 29.37 11 25.74 11 22 C7.37 22 3.74 22 0 22 C0 14.74 0 7.48 0 0 Z " fill="#000000" transform="translate(133,133)"/>
<path d="M0 0 C7.59 0 15.18 0 23 0 C23 7.59 23 15.18 23 23 C19.04 23 15.08 23 11 23 C11 19.37 11 15.74 11 12 C7.37 12 3.74 12 0 12 C0 8.04 0 4.08 0 0 Z " fill="#FFFFFF" transform="translate(377,188)"/>
<path d="M0 0 C10.89 0 21.78 0 33 0 C33 3.96 33 7.92 33 12 C22.11 12 11.22 12 0 12 C0 8.04 0 4.08 0 0 Z " fill="#000000" transform="translate(344,188)"/>
<path d="M0 0 C3.96 0 7.92 0 12 0 C12 7.26 12 14.52 12 22 C4.41 22 -3.18 22 -11 22 C-11 18.37 -11 14.74 -11 11 C-7.37 11 -3.74 11 0 11 C0 7.37 0 3.74 0 0 Z " fill="#FFFFFF" transform="translate(288,266)"/>
<path d="M0 0 C3.63 0 7.26 0 11 0 C11 7.26 11 14.52 11 22 C3.41 22 -4.18 22 -12 22 C-12 18.37 -12 14.74 -12 11 C-8.04 11 -4.08 11 0 11 C0 7.37 0 3.74 0 0 Z " fill="#FFFFFF" transform="translate(100,311)"/>
<path d="M0 0 C3.63 0 7.26 0 11 0 C11 7.59 11 15.18 11 23 C3.74 23 -3.52 23 -11 23 C-11 19.37 -11 15.74 -11 12 C-7.37 12 -3.74 12 0 12 C0 8.04 0 4.08 0 0 Z " fill="#000000" transform="translate(233,188)"/>
<path d="M0 0 C11.22 0 22.44 0 34 0 C34 3.63 34 7.26 34 11 C22.78 11 11.56 11 0 11 C0 7.37 0 3.74 0 0 Z " fill="#000000" transform="translate(277,22)"/>
<path d="M0 0 C3.63 0 7.26 0 11 0 C11 10.89 11 21.78 11 33 C7.37 33 3.74 33 0 33 C0 22.11 0 11.22 0 0 Z " fill="#FFFFFF" transform="translate(344,422)"/>
<path d="M0 0 C7.26 0 14.52 0 22 0 C22 3.63 22 7.26 22 11 C18.37 11 14.74 11 11 11 C11 14.63 11 18.26 11 22 C7.37 22 3.74 22 0 22 C0 14.74 0 7.48 0 0 Z " fill="#000000" transform="translate(111,311)"/>
<path d="M0 0 C3.63 0 7.26 0 11 0 C11 7.26 11 14.52 11 22 C3.74 22 -3.52 22 -11 22 C-11 18.37 -11 14.74 -11 11 C-7.37 11 -3.74 11 0 11 C0 7.37 0 3.74 0 0 Z " fill="#FFFFFF" transform="translate(411,266)"/>
<path d="M0 0 C3.63 0 7.26 0 11 0 C11 10.89 11 21.78 11 33 C7.37 33 3.74 33 0 33 C0 22.11 0 11.22 0 0 Z " fill="#000000" transform="translate(122,255)"/>
<path d="M0 0 C7.26 0 14.52 0 22 0 C22 3.63 22 7.26 22 11 C18.37 11 14.74 11 11 11 C11 14.63 11 18.26 11 22 C7.37 22 3.74 22 0 22 C0 14.74 0 7.48 0 0 Z " fill="#FFFFFF" transform="translate(66,244)"/>
<path d="M0 0 C3.63 0 7.26 0 11 0 C11 7.26 11 14.52 11 22 C3.74 22 -3.52 22 -11 22 C-11 18.37 -11 14.74 -11 11 C-7.37 11 -3.74 11 0 11 C0 7.37 0 3.74 0 0 Z " fill="#000000" transform="translate(466,166)"/>
<path d="M0 0 C3.63 0 7.26 0 11 0 C11 7.26 11 14.52 11 22 C3.74 22 -3.52 22 -11 22 C-11 18.37 -11 14.74 -11 11 C-7.37 11 -3.74 11 0 11 C0 7.37 0 3.74 0 0 Z " fill="#000000" transform="translate(177,166)"/>
<path d="M0 0 C7.26 0 14.52 0 22 0 C22 3.96 22 7.92 22 12 C14.74 12 7.48 12 0 12 C0 8.04 0 4.08 0 0 Z " fill="#000000" transform="translate(333,388)"/>
<path d="M0 0 C7.59 0 15.18 0 23 0 C23 3.63 23 7.26 23 11 C15.41 11 7.82 11 0 11 C0 7.37 0 3.74 0 0 Z " fill="#FFFFFF" transform="translate(377,366)"/>
<path d="M0 0 C7.59 0 15.18 0 23 0 C23 3.63 23 7.26 23 11 C15.41 11 7.82 11 0 11 C0 7.37 0 3.74 0 0 Z " fill="#FFFFFF" transform="translate(277,300)"/>
<path d="M0 0 C7.59 0 15.18 0 23 0 C23 3.63 23 7.26 23 11 C15.41 11 7.82 11 0 11 C0 7.37 0 3.74 0 0 Z " fill="#000000" transform="translate(88,244)"/>
<path d="M0 0 C7.59 0 15.18 0 23 0 C23 3.63 23 7.26 23 11 C15.41 11 7.82 11 0 11 C0 7.37 0 3.74 0 0 Z " fill="#000000" transform="translate(88,133)"/>
<path d="M0 0 C7.26 0 14.52 0 22 0 C22 3.63 22 7.26 22 11 C14.74 11 7.48 11 0 11 C0 7.37 0 3.74 0 0 Z " fill="#000000" transform="translate(300,466)"/>
<path d="M0 0 C3.63 0 7.26 0 11 0 C11 7.26 11 14.52 11 22 C7.37 22 3.74 22 0 22 C0 14.74 0 7.48 0 0 Z " fill="#000000" transform="translate(466,433)"/>
<path d="M0 0 C3.63 0 7.26 0 11 0 C11 7.26 11 14.52 11 22 C7.37 22 3.74 22 0 22 C0 14.74 0 7.48 0 0 Z " fill="#000000" transform="translate(422,311)"/>
<path d="M0 0 C3.63 0 7.26 0 11 0 C11 7.26 11 14.52 11 22 C7.37 22 3.74 22 0 22 C0 14.74 0 7.48 0 0 Z " fill="#000000" transform="translate(377,311)"/>
<path d="M0 0 C7.26 0 14.52 0 22 0 C22 3.63 22 7.26 22 11 C14.74 11 7.48 11 0 11 C0 7.37 0 3.74 0 0 Z " fill="#000000" transform="translate(200,300)"/>
<path d="M0 0 C3.63 0 7.26 0 11 0 C11 7.26 11 14.52 11 22 C7.37 22 3.74 22 0 22 C0 14.74 0 7.48 0 0 Z " fill="#000000" transform="translate(422,266)"/>
<path d="M0 0 C7.26 0 14.52 0 22 0 C22 3.63 22 7.26 22 11 C14.74 11 7.48 11 0 11 C0 7.37 0 3.74 0 0 Z " fill="#000000" transform="translate(166,200)"/>
<path d="M0 0 C7.26 0 14.52 0 22 0 C22 3.63 22 7.26 22 11 C14.74 11 7.48 11 0 11 C0 7.37 0 3.74 0 0 Z " fill="#FFFFFF" transform="translate(400,177)"/>
<path d="M0 0 C3.63 0 7.26 0 11 0 C11 7.26 11 14.52 11 22 C7.37 22 3.74 22 0 22 C0 14.74 0 7.48 0 0 Z " fill="#FFFFFF" transform="translate(422,155)"/>
<path d="M0 0 C3.63 0 7.26 0 11 0 C11 7.26 11 14.52 11 22 C7.37 22 3.74 22 0 22 C0 14.74 0 7.48 0 0 Z " fill="#000000" transform="translate(322,155)"/>
<path d="M0 0 C7.26 0 14.52 0 22 0 C22 3.63 22 7.26 22 11 C14.74 11 7.48 11 0 11 C0 7.37 0 3.74 0 0 Z " fill="#000000" transform="translate(400,122)"/>
<path d="M0 0 C7.26 0 14.52 0 22 0 C22 3.63 22 7.26 22 11 C14.74 11 7.48 11 0 11 C0 7.37 0 3.74 0 0 Z " fill="#000000" transform="translate(22,122)"/>
<path d="M0 0 C3.96 0 7.92 0 12 0 C12 3.96 12 7.92 12 12 C8.04 12 4.08 12 0 12 C0 8.04 0 4.08 0 0 Z " fill="#000000" transform="translate(88,288)"/>
<path d="M0 0 C3.96 0 7.92 0 12 0 C12 3.96 12 7.92 12 12 C8.04 12 4.08 12 0 12 C0 8.04 0 4.08 0 0 Z " fill="#000000" transform="translate(288,88)"/>
<path d="M0 0 C3.63 0 7.26 0 11 0 C11 3.96 11 7.92 11 12 C7.37 12 3.74 12 0 12 C0 8.04 0 4.08 0 0 Z " fill="#FFFFFF" transform="translate(222,388)"/>
<path d="M0 0 C3.96 0 7.92 0 12 0 C12 3.63 12 7.26 12 11 C8.04 11 4.08 11 0 11 C0 7.37 0 3.74 0 0 Z " fill="#FFFFFF" transform="translate(188,355)"/>
<path d="M0 0 C3.96 0 7.92 0 12 0 C12 3.63 12 7.26 12 11 C8.04 11 4.08 11 0 11 C0 7.37 0 3.74 0 0 Z " fill="#000000" transform="translate(188,344)"/>
<path d="M0 0 C3.96 0 7.92 0 12 0 C12 3.63 12 7.26 12 11 C8.04 11 4.08 11 0 11 C0 7.37 0 3.74 0 0 Z " fill="#FFFFFF" transform="translate(188,333)"/>
<path d="M0 0 C3.63 0 7.26 0 11 0 C11 3.96 11 7.92 11 12 C7.37 12 3.74 12 0 12 C0 8.04 0 4.08 0 0 Z " fill="#FFFFFF" transform="translate(300,288)"/>
<path d="M0 0 C3.63 0 7.26 0 11 0 C11 3.96 11 7.92 11 12 C7.37 12 3.74 12 0 12 C0 8.04 0 4.08 0 0 Z " fill="#000000" transform="translate(133,288)"/>
<path d="M0 0 C3.63 0 7.26 0 11 0 C11 3.96 11 7.92 11 12 C7.37 12 3.74 12 0 12 C0 8.04 0 4.08 0 0 Z " fill="#FFFFFF" transform="translate(33,288)"/>
<path d="M0 0 C3.96 0 7.92 0 12 0 C12 3.63 12 7.26 12 11 C8.04 11 4.08 11 0 11 C0 7.37 0 3.74 0 0 Z " fill="#FFFFFF" transform="translate(88,277)"/>
<path d="M0 0 C3.63 0 7.26 0 11 0 C11 3.96 11 7.92 11 12 C7.37 12 3.74 12 0 12 C0 8.04 0 4.08 0 0 Z " fill="#000000" transform="translate(322,188)"/>
<path d="M0 0 C3.63 0 7.26 0 11 0 C11 3.96 11 7.92 11 12 C7.37 12 3.74 12 0 12 C0 8.04 0 4.08 0 0 Z " fill="#FFFFFF" transform="translate(277,188)"/>
<path d="M0 0 C3.96 0 7.92 0 12 0 C12 3.63 12 7.26 12 11 C8.04 11 4.08 11 0 11 C0 7.37 0 3.74 0 0 Z " fill="#FFFFFF" transform="translate(88,166)"/>
<path d="M0 0 C3.63 0 7.26 0 11 0 C11 3.96 11 7.92 11 12 C7.37 12 3.74 12 0 12 C0 8.04 0 4.08 0 0 Z " fill="#FFFFFF" transform="translate(366,88)"/>
<path d="M0 0 C3.63 0 7.26 0 11 0 C11 3.96 11 7.92 11 12 C7.37 12 3.74 12 0 12 C0 8.04 0 4.08 0 0 Z " fill="#000000" transform="translate(311,88)"/>
<path d="M0 0 C3.63 0 7.26 0 11 0 C11 3.96 11 7.92 11 12 C7.37 12 3.74 12 0 12 C0 8.04 0 4.08 0 0 Z " fill="#FFFFFF" transform="translate(300,88)"/>
<path d="M0 0 C3.63 0 7.26 0 11 0 C11 3.96 11 7.92 11 12 C7.37 12 3.74 12 0 12 C0 8.04 0 4.08 0 0 Z " fill="#000000" transform="translate(266,88)"/>
<path d="M0 0 C3.63 0 7.26 0 11 0 C11 3.96 11 7.92 11 12 C7.37 12 3.74 12 0 12 C0 8.04 0 4.08 0 0 Z " fill="#000000" transform="translate(155,88)"/>
<path d="M0 0 C3.63 0 7.26 0 11 0 C11 3.96 11 7.92 11 12 C7.37 12 3.74 12 0 12 C0 8.04 0 4.08 0 0 Z " fill="#000000" transform="translate(133,88)"/>
<path d="M0 0 C3.63 0 7.26 0 11 0 C11 3.96 11 7.92 11 12 C7.37 12 3.74 12 0 12 C0 8.04 0 4.08 0 0 Z " fill="#000000" transform="translate(111,88)"/>
<path d="M0 0 C3.63 0 7.26 0 11 0 C11 3.63 11 7.26 11 11 C7.37 11 3.74 11 0 11 C0 7.37 0 3.74 0 0 Z " fill="#000000" transform="translate(422,466)"/>
<path d="M0 0 C3.63 0 7.26 0 11 0 C11 3.63 11 7.26 11 11 C7.37 11 3.74 11 0 11 C0 7.37 0 3.74 0 0 Z " fill="#000000" transform="translate(277,466)"/>
<path d="M0 0 C3.63 0 7.26 0 11 0 C11 3.63 11 7.26 11 11 C7.37 11 3.74 11 0 11 C0 7.37 0 3.74 0 0 Z " fill="#000000" transform="translate(411,455)"/>
<path d="M0 0 C3.63 0 7.26 0 11 0 C11 3.63 11 7.26 11 11 C7.37 11 3.74 11 0 11 C0 7.37 0 3.74 0 0 Z " fill="#FFFFFF" transform="translate(277,455)"/>
<path d="M0 0 C3.63 0 7.26 0 11 0 C11 3.63 11 7.26 11 11 C7.37 11 3.74 11 0 11 C0 7.37 0 3.74 0 0 Z " fill="#FFFFFF" transform="translate(233,444)"/>
<path d="M0 0 C3.63 0 7.26 0 11 0 C11 3.63 11 7.26 11 11 C7.37 11 3.74 11 0 11 C0 7.37 0 3.74 0 0 Z " fill="#FFFFFF" transform="translate(200,444)"/>
<path d="M0 0 C3.63 0 7.26 0 11 0 C11 3.63 11 7.26 11 11 C7.37 11 3.74 11 0 11 C0 7.37 0 3.74 0 0 Z " fill="#FFFFFF" transform="translate(122,444)"/>
<path d="M0 0 C3.63 0 7.26 0 11 0 C11 3.63 11 7.26 11 11 C7.37 11 3.74 11 0 11 C0 7.37 0 3.74 0 0 Z " fill="#000000" transform="translate(111,444)"/>
<path d="M0 0 C3.63 0 7.26 0 11 0 C11 3.63 11 7.26 11 11 C7.37 11 3.74 11 0 11 C0 7.37 0 3.74 0 0 Z " fill="#FFFFFF" transform="translate(211,433)"/>
<path d="M0 0 C3.63 0 7.26 0 11 0 C11 3.63 11 7.26 11 11 C7.37 11 3.74 11 0 11 C0 7.37 0 3.74 0 0 Z " fill="#FFFFFF" transform="translate(177,433)"/>
<path d="M0 0 C3.63 0 7.26 0 11 0 C11 3.63 11 7.26 11 11 C7.37 11 3.74 11 0 11 C0 7.37 0 3.74 0 0 Z " fill="#FFFFFF" transform="translate(233,422)"/>
<path d="M0 0 C3.63 0 7.26 0 11 0 C11 3.63 11 7.26 11 11 C7.37 11 3.74 11 0 11 C0 7.37 0 3.74 0 0 Z " fill="#FFFFFF" transform="translate(166,411)"/>
<path d="M0 0 C3.63 0 7.26 0 11 0 C11 3.63 11 7.26 11 11 C7.37 11 3.74 11 0 11 C0 7.37 0 3.74 0 0 Z " fill="#000000" transform="translate(400,400)"/>
<path d="M0 0 C3.63 0 7.26 0 11 0 C11 3.63 11 7.26 11 11 C7.37 11 3.74 11 0 11 C0 7.37 0 3.74 0 0 Z " fill="#000000" transform="translate(22,377)"/>
<path d="M0 0 C3.63 0 7.26 0 11 0 C11 3.63 11 7.26 11 11 C7.37 11 3.74 11 0 11 C0 7.37 0 3.74 0 0 Z " fill="#FFFFFF" transform="translate(422,366)"/>
<path d="M0 0 C3.63 0 7.26 0 11 0 C11 3.63 11 7.26 11 11 C7.37 11 3.74 11 0 11 C0 7.37 0 3.74 0 0 Z " fill="#FFFFFF" transform="translate(322,366)"/>
<path d="M0 0 C3.63 0 7.26 0 11 0 C11 3.63 11 7.26 11 11 C7.37 11 3.74 11 0 11 C0 7.37 0 3.74 0 0 Z " fill="#000000" transform="translate(33,366)"/>
<path d="M0 0 C3.63 0 7.26 0 11 0 C11 3.63 11 7.26 11 11 C7.37 11 3.74 11 0 11 C0 7.37 0 3.74 0 0 Z " fill="#000000" transform="translate(244,355)"/>
<path d="M0 0 C3.63 0 7.26 0 11 0 C11 3.63 11 7.26 11 11 C7.37 11 3.74 11 0 11 C0 7.37 0 3.74 0 0 Z " fill="#000000" transform="translate(200,355)"/>
<path d="M0 0 C3.63 0 7.26 0 11 0 C11 3.63 11 7.26 11 11 C7.37 11 3.74 11 0 11 C0 7.37 0 3.74 0 0 Z " fill="#000000" transform="translate(177,355)"/>
<path d="M0 0 C3.63 0 7.26 0 11 0 C11 3.63 11 7.26 11 11 C7.37 11 3.74 11 0 11 C0 7.37 0 3.74 0 0 Z " fill="#FFFFFF" transform="translate(133,355)"/>
<path d="M0 0 C3.63 0 7.26 0 11 0 C11 3.63 11 7.26 11 11 C7.37 11 3.74 11 0 11 C0 7.37 0 3.74 0 0 Z " fill="#FFFFFF" transform="translate(55,355)"/>
<path d="M0 0 C3.63 0 7.26 0 11 0 C11 3.63 11 7.26 11 11 C7.37 11 3.74 11 0 11 C0 7.37 0 3.74 0 0 Z " fill="#FFFFFF" transform="translate(33,355)"/>
<path d="M0 0 C3.63 0 7.26 0 11 0 C11 3.63 11 7.26 11 11 C7.37 11 3.74 11 0 11 C0 7.37 0 3.74 0 0 Z " fill="#000000" transform="translate(22,355)"/>
<path d="M0 0 C3.63 0 7.26 0 11 0 C11 3.63 11 7.26 11 11 C7.37 11 3.74 11 0 11 C0 7.37 0 3.74 0 0 Z " fill="#000000" transform="translate(355,344)"/>
<path d="M0 0 C3.63 0 7.26 0 11 0 C11 3.63 11 7.26 11 11 C7.37 11 3.74 11 0 11 C0 7.37 0 3.74 0 0 Z " fill="#FFFFFF" transform="translate(300,344)"/>
<path d="M0 0 C3.63 0 7.26 0 11 0 C11 3.63 11 7.26 11 11 C7.37 11 3.74 11 0 11 C0 7.37 0 3.74 0 0 Z " fill="#000000" transform="translate(211,344)"/>
<path d="M0 0 C3.63 0 7.26 0 11 0 C11 3.63 11 7.26 11 11 C7.37 11 3.74 11 0 11 C0 7.37 0 3.74 0 0 Z " fill="#FFFFFF" transform="translate(200,344)"/>
<path d="M0 0 C3.63 0 7.26 0 11 0 C11 3.63 11 7.26 11 11 C7.37 11 3.74 11 0 11 C0 7.37 0 3.74 0 0 Z " fill="#000000" transform="translate(155,344)"/>
<path d="M0 0 C3.63 0 7.26 0 11 0 C11 3.63 11 7.26 11 11 C7.37 11 3.74 11 0 11 C0 7.37 0 3.74 0 0 Z " fill="#FFFFFF" transform="translate(144,344)"/>
<path d="M0 0 C3.63 0 7.26 0 11 0 C11 3.63 11 7.26 11 11 C7.37 11 3.74 11 0 11 C0 7.37 0 3.74 0 0 Z " fill="#FFFFFF" transform="translate(66,344)"/>
<path d="M0 0 C3.63 0 7.26 0 11 0 C11 3.63 11 7.26 11 11 C7.37 11 3.74 11 0 11 C0 7.37 0 3.74 0 0 Z " fill="#000000" transform="translate(222,333)"/>
<path d="M0 0 C3.63 0 7.26 0 11 0 C11 3.63 11 7.26 11 11 C7.37 11 3.74 11 0 11 C0 7.37 0 3.74 0 0 Z " fill="#FFFFFF" transform="translate(211,333)"/>
<path d="M0 0 C3.63 0 7.26 0 11 0 C11 3.63 11 7.26 11 11 C7.37 11 3.74 11 0 11 C0 7.37 0 3.74 0 0 Z " fill="#000000" transform="translate(22,322)"/>
<path d="M0 0 C3.63 0 7.26 0 11 0 C11 3.63 11 7.26 11 11 C7.37 11 3.74 11 0 11 C0 7.37 0 3.74 0 0 Z " fill="#000000" transform="translate(400,311)"/>
<path d="M0 0 C3.63 0 7.26 0 11 0 C11 3.63 11 7.26 11 11 C7.37 11 3.74 11 0 11 C0 7.37 0 3.74 0 0 Z " fill="#FFFFFF" transform="translate(255,311)"/>
<path d="M0 0 C3.63 0 7.26 0 11 0 C11 3.63 11 7.26 11 11 C7.37 11 3.74 11 0 11 C0 7.37 0 3.74 0 0 Z " fill="#000000" transform="translate(144,311)"/>
<path d="M0 0 C3.63 0 7.26 0 11 0 C11 3.63 11 7.26 11 11 C7.37 11 3.74 11 0 11 C0 7.37 0 3.74 0 0 Z " fill="#FFFFFF" transform="translate(244,300)"/>
<path d="M0 0 C3.63 0 7.26 0 11 0 C11 3.63 11 7.26 11 11 C7.37 11 3.74 11 0 11 C0 7.37 0 3.74 0 0 Z " fill="#000000" transform="translate(100,300)"/>
<path d="M0 0 C3.63 0 7.26 0 11 0 C11 3.63 11 7.26 11 11 C7.37 11 3.74 11 0 11 C0 7.37 0 3.74 0 0 Z " fill="#000000" transform="translate(100,277)"/>
<path d="M0 0 C3.63 0 7.26 0 11 0 C11 3.63 11 7.26 11 11 C7.37 11 3.74 11 0 11 C0 7.37 0 3.74 0 0 Z " fill="#000000" transform="translate(400,266)"/>
<path d="M0 0 C3.63 0 7.26 0 11 0 C11 3.63 11 7.26 11 11 C7.37 11 3.74 11 0 11 C0 7.37 0 3.74 0 0 Z " fill="#000000" transform="translate(355,266)"/>
<path d="M0 0 C3.63 0 7.26 0 11 0 C11 3.63 11 7.26 11 11 C7.37 11 3.74 11 0 11 C0 7.37 0 3.74 0 0 Z " fill="#FFFFFF" transform="translate(177,266)"/>
<path d="M0 0 C3.63 0 7.26 0 11 0 C11 3.63 11 7.26 11 11 C7.37 11 3.74 11 0 11 C0 7.37 0 3.74 0 0 Z " fill="#000000" transform="translate(366,244)"/>
<path d="M0 0 C3.63 0 7.26 0 11 0 C11 3.63 11 7.26 11 11 C7.37 11 3.74 11 0 11 C0 7.37 0 3.74 0 0 Z " fill="#FFFFFF" transform="translate(400,233)"/>
<path d="M0 0 C3.63 0 7.26 0 11 0 C11 3.63 11 7.26 11 11 C7.37 11 3.74 11 0 11 C0 7.37 0 3.74 0 0 Z " fill="#000000" transform="translate(22,233)"/>
<path d="M0 0 C3.63 0 7.26 0 11 0 C11 3.63 11 7.26 11 11 C7.37 11 3.74 11 0 11 C0 7.37 0 3.74 0 0 Z " fill="#000000" transform="translate(111,222)"/>
<path d="M0 0 C3.63 0 7.26 0 11 0 C11 3.63 11 7.26 11 11 C7.37 11 3.74 11 0 11 C0 7.37 0 3.74 0 0 Z " fill="#FFFFFF" transform="translate(266,211)"/>
<path d="M0 0 C3.63 0 7.26 0 11 0 C11 3.63 11 7.26 11 11 C7.37 11 3.74 11 0 11 C0 7.37 0 3.74 0 0 Z " fill="#000000" transform="translate(122,211)"/>
<path d="M0 0 C3.63 0 7.26 0 11 0 C11 3.63 11 7.26 11 11 C7.37 11 3.74 11 0 11 C0 7.37 0 3.74 0 0 Z " fill="#000000" transform="translate(311,177)"/>
<path d="M0 0 C3.63 0 7.26 0 11 0 C11 3.63 11 7.26 11 11 C7.37 11 3.74 11 0 11 C0 7.37 0 3.74 0 0 Z " fill="#FFFFFF" transform="translate(77,177)"/>
<path d="M0 0 C3.63 0 7.26 0 11 0 C11 3.63 11 7.26 11 11 C7.37 11 3.74 11 0 11 C0 7.37 0 3.74 0 0 Z " fill="#000000" transform="translate(344,166)"/>
<path d="M0 0 C3.63 0 7.26 0 11 0 C11 3.63 11 7.26 11 11 C7.37 11 3.74 11 0 11 C0 7.37 0 3.74 0 0 Z " fill="#000000" transform="translate(255,166)"/>
<path d="M0 0 C3.63 0 7.26 0 11 0 C11 3.63 11 7.26 11 11 C7.37 11 3.74 11 0 11 C0 7.37 0 3.74 0 0 Z " fill="#000000" transform="translate(455,155)"/>
<path d="M0 0 C3.63 0 7.26 0 11 0 C11 3.63 11 7.26 11 11 C7.37 11 3.74 11 0 11 C0 7.37 0 3.74 0 0 Z " fill="#000000" transform="translate(300,155)"/>
<path d="M0 0 C3.63 0 7.26 0 11 0 C11 3.63 11 7.26 11 11 C7.37 11 3.74 11 0 11 C0 7.37 0 3.74 0 0 Z " fill="#FFFFFF" transform="translate(300,144)"/>
<path d="M0 0 C3.63 0 7.26 0 11 0 C11 3.63 11 7.26 11 11 C7.37 11 3.74 11 0 11 C0 7.37 0 3.74 0 0 Z " fill="#000000" transform="translate(433,133)"/>
<path d="M0 0 C3.63 0 7.26 0 11 0 C11 3.63 11 7.26 11 11 C7.37 11 3.74 11 0 11 C0 7.37 0 3.74 0 0 Z " fill="#000000" transform="translate(211,122)"/>
<path d="M0 0 C3.63 0 7.26 0 11 0 C11 3.63 11 7.26 11 11 C7.37 11 3.74 11 0 11 C0 7.37 0 3.74 0 0 Z " fill="#000000" transform="translate(433,111)"/>
<path d="M0 0 C3.63 0 7.26 0 11 0 C11 3.63 11 7.26 11 11 C7.37 11 3.74 11 0 11 C0 7.37 0 3.74 0 0 Z " fill="#000000" transform="translate(44,111)"/>
<path d="M0 0 C3.63 0 7.26 0 11 0 C11 3.63 11 7.26 11 11 C7.37 11 3.74 11 0 11 C0 7.37 0 3.74 0 0 Z " fill="#000000" transform="translate(366,100)"/>
<path d="M0 0 C3.63 0 7.26 0 11 0 C11 3.63 11 7.26 11 11 C7.37 11 3.74 11 0 11 C0 7.37 0 3.74 0 0 Z " fill="#FFFFFF" transform="translate(355,100)"/>
<path d="M0 0 C3.63 0 7.26 0 11 0 C11 3.63 11 7.26 11 11 C7.37 11 3.74 11 0 11 C0 7.37 0 3.74 0 0 Z " fill="#000000" transform="translate(300,100)"/>
<path d="M0 0 C3.63 0 7.26 0 11 0 C11 3.63 11 7.26 11 11 C7.37 11 3.74 11 0 11 C0 7.37 0 3.74 0 0 Z " fill="#000000" transform="translate(300,77)"/>
<path d="M0 0 C3.63 0 7.26 0 11 0 C11 3.63 11 7.26 11 11 C7.37 11 3.74 11 0 11 C0 7.37 0 3.74 0 0 Z " fill="#000000" transform="translate(111,55)"/>
<path d="M0 0 C3.63 0 7.26 0 11 0 C11 3.63 11 7.26 11 11 C7.37 11 3.74 11 0 11 C0 7.37 0 3.74 0 0 Z " fill="#000000" transform="translate(255,22)"/>
</svg>
